{"glyphs":{"0":{"ha":694,"x_min":0,"x_max":0,"o":"m 349 871 b 70 426 212 871 70 703 b 351 -16 70 146 214 -16 b 624 418 476 -16 624 121 b 349 871 624 713 482 871 z m 484 674 l 180 279 b 160 443 167 327 160 381 b 348 786 160 664 262 786 b 484 674 395 786 447 750 z m 516 581 b 535 407 528 532 535 474 b 354 73 535 165 430 73 b 212 191 303 73 249 115 z "},"1":{"ha":694,"x_min":0,"x_max":0,"o":"m 414 867 l 349 867 l 127 750 l 150 696 l 321 746 l 321 76 l 161 76 l 161 -1 l 569 -1 l 569 76 l 414 76 z "},"2":{"ha":694,"x_min":0,"x_max":0,"o":"m 108 731 l 179 675 b 191 707 187 687 183 695 b 339 786 211 739 263 786 b 505 621 431 786 505 714 b 353 383 505 516 416 440 b 102 61 254 294 175 205 l 102 0 l 610 0 l 610 97 b 591 91 601 100 594 93 b 577 85 586 86 583 85 l 213 85 b 449 355 286 211 386 297 b 601 628 512 415 601 504 b 350 871 601 763 491 871 b 108 731 252 871 159 818 z "},"3":{"ha":694,"x_min":0,"x_max":0,"o":"m 571 649 b 333 868 571 767 469 868 b 125 776 255 868 179 835 l 179 716 b 328 782 219 759 274 782 b 478 647 417 782 478 720 b 386 511 478 594 446 537 b 249 489 371 504 331 489 l 249 411 b 293 414 264 413 279 414 b 497 250 410 414 497 353 b 322 73 497 155 424 73 b 187 132 242 73 193 125 b 169 171 175 145 181 159 l 96 84 b 323 -15 154 19 237 -15 b 590 238 489 -15 590 104 b 441 461 590 341 531 429 b 571 649 519 490 571 565 z "},"4":{"ha":694,"x_min":0,"x_max":0,"o":"m 435 867 l 67 312 l 67 240 l 416 240 l 416 0 l 517 0 l 517 239 l 628 239 l 628 325 l 517 325 l 517 867 z m 417 712 l 417 325 l 163 325 z "},"5":{"ha":694,"x_min":0,"x_max":0,"o":"m 147 865 l 117 426 l 180 400 b 342 482 222 453 283 482 b 519 275 433 482 519 413 b 344 70 519 142 437 70 b 185 149 251 70 190 140 b 175 182 180 160 187 174 l 89 117 b 345 -16 146 33 242 -16 b 619 274 495 -16 619 86 b 357 562 619 459 502 562 b 216 529 309 562 261 551 l 229 778 l 586 778 l 586 865 z "},"6":{"ha":694,"x_min":0,"x_max":0,"o":"m 399 875 b 130 660 296 875 184 812 b 93 394 101 578 93 477 b 159 101 93 293 103 184 b 363 -14 209 24 286 -14 b 610 275 495 -14 610 97 b 373 559 610 455 495 559 b 189 454 297 559 228 519 b 399 789 195 750 337 789 b 500 753 457 789 495 758 b 521 722 509 744 509 731 l 589 796 b 399 875 538 846 469 875 z m 364 474 b 516 270 433 474 516 419 b 367 72 516 135 441 72 b 194 357 262 72 183 195 b 364 474 233 428 299 474 z "},"7":{"ha":694,"x_min":0,"x_max":0,"o":"m 109 865 l 109 773 l 479 773 b 354 463 436 670 394 567 b 188 0 295 310 239 156 l 297 0 b 435 405 339 136 385 271 b 599 811 486 542 541 678 l 599 865 z "},"8":{"ha":694,"x_min":0,"x_max":0,"o":"m 359 876 b 125 663 226 876 125 780 b 257 460 125 578 178 500 b 84 218 154 412 84 317 b 347 -14 84 89 198 -14 b 613 223 499 -14 613 92 b 446 463 613 325 543 418 b 584 671 530 507 584 588 b 359 876 584 785 486 876 z m 330 421 b 515 224 441 386 515 309 b 351 73 515 141 443 73 b 183 230 257 73 183 143 b 330 421 183 312 247 387 z m 351 795 b 489 665 429 795 489 737 b 370 497 489 598 438 534 b 218 671 370 497 218 557 b 351 795 218 739 276 795 z "},"9":{"ha":694,"x_min":0,"x_max":0,"o":"m 302 -15 b 570 187 407 -15 518 49 b 607 444 585 227 607 302 b 577 686 607 552 598 627 b 342 874 532 818 433 874 b 95 587 208 874 95 755 b 332 314 95 421 206 314 b 511 408 404 314 470 349 b 475 193 506 273 484 215 b 304 74 438 106 366 74 b 200 106 242 74 200 105 b 177 139 188 115 192 130 l 110 65 b 302 -15 161 14 230 -15 z m 342 399 b 189 591 264 399 189 462 b 340 788 189 717 262 788 b 506 505 439 788 521 679 b 342 399 468 440 404 399 z "}," ":{"ha":694,"x_min":0,"x_max":0,"o":""},"!":{"ha":694,"x_min":0,"x_max":0,"o":"m 415 67 b 333 149 415 112 378 149 b 250 67 287 149 250 112 b 333 -16 250 21 287 -16 b 415 67 378 -16 415 21 z m 335 928 b 274 883 311 928 286 913 b 264 823 267 868 264 849 b 278 653 264 778 273 745 l 298 270 l 368 270 l 393 653 b 406 812 397 706 406 759 b 401 868 406 844 403 860 b 335 928 390 910 361 928 z "},"\"":{"ha":694,"x_min":0,"x_max":0,"o":"m 551 840 b 488 925 551 903 516 925 b 429 849 462 925 429 904 b 438 761 429 819 438 791 b 424 684 438 734 432 708 l 394 591 l 471 572 l 505 664 b 551 840 539 759 551 803 z m 311 840 b 249 925 311 903 276 925 b 189 849 222 925 189 904 b 198 761 189 819 198 791 b 185 684 198 734 192 708 l 155 591 l 231 572 l 265 664 b 311 840 299 759 311 803 z "},"#":{"ha":694,"x_min":0,"x_max":0,"o":"m 241 867 l 213 631 l 59 629 l 54 563 l 205 565 l 177 328 l 41 326 l 35 262 l 170 265 l 140 16 l 222 19 l 252 266 l 405 268 l 375 14 l 459 19 l 490 270 l 628 272 l 635 337 l 498 334 l 526 568 l 653 569 l 660 636 l 534 635 l 562 863 l 476 859 l 449 634 l 296 632 l 325 870 z m 288 566 l 441 567 l 413 333 l 259 330 z "},"$":{"ha":694,"x_min":0,"x_max":0,"o":"m 326 904 l 326 821 b 110 619 198 804 110 719 b 250 435 110 569 133 490 b 326 405 275 423 301 414 l 326 100 b 153 185 253 108 192 144 b 149 200 148 191 148 194 b 143 213 149 202 150 210 l 83 131 b 326 20 145 64 230 26 l 326 -65 l 408 -65 l 408 23 b 639 252 565 43 639 152 b 499 439 639 379 529 426 b 408 472 471 451 439 462 l 408 740 b 539 670 468 731 510 705 b 545 662 544 665 545 663 b 547 650 547 658 546 654 b 554 640 547 643 551 641 l 614 716 b 408 822 563 776 490 813 l 408 875 b 417 899 408 888 417 889 b 416 904 417 901 417 902 z m 408 380 b 479 352 435 371 460 362 b 548 246 537 320 548 274 b 408 103 548 183 497 120 z m 326 501 b 277 524 308 508 292 516 b 202 631 216 559 202 601 b 326 741 202 679 239 731 z "},"%":{"ha":694,"x_min":0,"x_max":0,"o":"m 543 865 l 64 0 l 152 0 l 636 865 z m 194 881 b 39 699 112 881 39 806 b 195 518 39 596 110 518 b 350 698 280 518 350 595 b 194 881 350 804 279 881 z m 192 808 b 263 694 215 808 263 793 b 194 592 263 614 222 592 b 123 704 169 592 123 610 b 192 808 123 786 165 808 z m 670 166 b 515 346 670 270 599 346 b 360 166 431 346 360 270 b 515 -15 360 62 430 -15 b 670 166 599 -15 670 62 z m 515 274 b 587 163 543 274 587 252 b 516 56 587 80 546 56 b 442 166 483 56 442 84 b 515 274 442 250 485 274 z "},"&":{"ha":694,"x_min":0,"x_max":0,"o":"m 318 874 b 127 692 212 874 127 795 b 225 476 127 615 174 538 b 50 203 119 417 50 310 b 267 -14 50 79 142 -14 b 501 105 360 -14 446 37 l 578 -17 l 659 44 l 562 170 b 668 332 601 222 636 276 l 578 394 b 572 380 574 391 572 387 b 574 363 572 374 574 369 b 572 353 574 359 573 356 b 509 241 561 320 542 279 l 354 458 b 503 689 444 507 503 598 b 318 874 503 796 422 874 z m 223 690 b 316 792 223 751 267 792 b 413 682 367 792 413 748 b 307 518 413 619 371 553 b 223 690 238 604 223 653 z m 273 411 l 451 171 b 282 75 451 171 374 75 b 155 213 211 75 155 132 b 273 411 155 285 199 363 z "},"'":{"ha":694,"x_min":0,"x_max":0,"o":"m 443 840 b 381 925 443 903 408 925 b 321 849 354 925 321 904 b 330 761 321 819 330 791 b 316 684 330 734 324 708 l 286 591 l 363 572 l 397 664 b 443 840 431 759 443 803 z "},"(":{"ha":694,"x_min":0,"x_max":0,"o":"m 544 925 b 193 359 329 831 193 613 b 545 -240 193 107 325 -124 l 591 -167 b 289 364 401 -56 289 148 b 548 835 289 562 385 739 b 560 839 551 837 555 839 b 575 837 565 839 569 837 b 586 840 577 837 581 838 z "},")":{"ha":694,"x_min":0,"x_max":0,"o":"m 108 838 b 408 344 291 740 408 550 b 101 -158 408 135 288 -59 l 127 -242 b 506 348 357 -132 506 98 b 134 924 506 595 360 820 z "},"*":{"ha":694,"x_min":0,"x_max":0,"o":"m 296 720 l 318 475 l 93 580 l 58 490 l 297 417 l 116 209 l 192 147 l 348 379 l 497 149 l 573 209 l 398 418 l 636 490 l 599 575 l 379 475 l 400 683 b 409 720 402 700 406 704 z "},"+":{"ha":694,"x_min":0,"x_max":0,"o":"m 308 726 l 308 489 l 62 489 l 62 404 l 308 404 l 308 144 l 396 144 l 396 404 l 633 404 l 633 489 l 396 489 l 396 726 z "},",":{"ha":694,"x_min":0,"x_max":0,"o":"m 424 27 b 328 143 424 98 377 143 b 248 63 282 143 248 105 b 287 2 248 26 275 10 b 319 -48 299 -6 319 -19 b 299 -105 319 -71 306 -94 b 229 -192 285 -128 262 -161 l 277 -234 b 424 27 374 -136 424 -45 z "},"-":{"ha":694,"x_min":0,"x_max":0,"o":"m 98 483 l 98 391 l 598 391 l 598 483 z "},".":{"ha":694,"x_min":0,"x_max":0,"o":"m 414 64 b 331 144 414 108 377 144 b 249 64 286 144 249 108 b 331 -16 249 20 286 -16 b 414 64 377 -16 414 20 z "},"/":{"ha":694,"x_min":0,"x_max":0,"o":"m 89 -18 l 170 -59 l 606 881 l 524 923 z "},":":{"ha":694,"x_min":0,"x_max":0,"o":"m 414 508 b 331 587 414 551 377 587 b 249 508 286 587 249 551 b 331 428 249 464 286 428 b 414 508 377 428 414 464 z m 414 64 b 331 144 414 108 377 144 b 249 64 286 144 249 108 b 331 -16 249 20 286 -16 b 414 64 377 -16 414 20 z "},";":{"ha":694,"x_min":0,"x_max":0,"o":"m 424 27 b 328 143 424 98 377 143 b 248 63 282 143 248 105 b 287 2 248 26 275 10 b 319 -48 299 -6 319 -19 b 299 -105 319 -71 306 -94 b 229 -192 285 -128 262 -161 l 277 -234 b 424 27 374 -136 424 -45 z m 414 508 b 331 587 414 551 377 587 b 249 508 286 587 249 551 b 331 428 249 464 286 428 b 414 508 377 428 414 464 z "},"<":{"ha":694,"x_min":0,"x_max":0,"o":"m 636 689 l 155 443 l 640 170 l 640 66 l 48 411 l 48 478 l 636 787 z "},"=":{"ha":694,"x_min":0,"x_max":0,"o":"m 62 609 l 62 524 l 633 524 l 633 609 z m 62 321 l 62 236 l 633 236 l 633 321 z "},">":{"ha":694,"x_min":0,"x_max":0,"o":"m 59 689 l 541 443 l 55 170 l 55 66 l 647 411 l 647 478 l 59 787 z "},"?":{"ha":694,"x_min":0,"x_max":0,"o":"m 445 62 b 363 141 445 105 408 141 b 280 62 317 141 280 105 b 363 -18 280 18 317 -18 b 445 62 408 -18 445 18 z m 89 779 l 159 713 b 347 833 203 786 277 833 b 493 686 430 833 493 769 b 379 493 493 595 421 539 b 314 314 318 425 314 376 l 314 257 l 405 257 l 405 314 b 466 455 405 363 408 404 b 603 679 511 496 603 549 b 356 924 603 809 514 924 b 89 779 252 924 149 872 z "},"@":{"ha":694,"x_min":0,"x_max":0,"o":"m 604 42 l 567 109 b 418 63 523 79 471 63 b 123 440 283 63 123 169 b 373 804 123 690 253 804 b 559 617 477 804 558 720 l 538 617 b 375 595 485 617 430 617 b 243 412 289 561 243 487 b 423 231 243 312 324 231 b 562 296 477 231 528 255 l 562 243 l 646 243 l 646 525 b 615 725 646 591 645 658 b 377 879 570 823 478 879 b 43 436 225 879 43 751 b 410 -16 43 114 236 -16 b 604 42 478 -16 546 4 z m 562 548 l 562 521 b 542 371 562 466 563 413 b 439 308 520 329 480 308 b 330 416 378 308 330 356 b 385 515 330 452 347 489 b 539 548 431 547 490 548 z "},"A":{"ha":694,"x_min":0,"x_max":0,"o":"m 20 -1 l 116 -1 l 200 253 l 475 253 l 571 0 l 671 0 l 337 881 l 326 881 z m 453 328 l 219 328 l 331 658 z "},"B":{"ha":694,"x_min":0,"x_max":0,"o":"m 67 865 l 67 0 l 312 0 b 490 26 371 0 430 1 b 634 240 583 66 634 150 b 472 464 634 340 569 431 b 601 654 550 496 601 571 b 475 841 601 732 556 806 b 313 865 420 865 366 865 z m 163 783 l 300 783 b 415 767 337 783 376 783 b 502 645 472 744 502 695 b 418 524 502 596 473 548 b 298 507 378 507 337 507 l 163 507 z m 163 426 l 304 426 b 434 404 348 426 391 425 b 533 249 499 374 533 312 b 440 103 533 187 500 130 b 328 85 402 86 366 85 l 163 85 z "},"C":{"ha":694,"x_min":0,"x_max":0,"o":"m 385 873 b 56 428 251 873 56 774 b 385 -14 56 93 242 -14 b 639 128 488 -14 585 40 l 567 175 b 390 70 527 109 458 70 b 151 436 263 70 151 202 b 382 795 151 666 260 795 b 548 694 450 795 513 755 b 553 680 551 690 553 686 b 552 669 553 676 552 673 b 559 656 552 668 552 660 l 651 701 b 385 873 604 806 500 873 z "},"D":{"ha":694,"x_min":0,"x_max":0,"o":"m 74 865 l 74 -1 l 260 -1 b 447 34 329 -1 386 2 b 639 434 571 97 639 245 b 478 819 639 601 590 747 b 277 865 415 860 353 865 z m 167 783 l 271 783 b 434 735 325 783 380 780 b 541 421 514 669 541 545 b 417 115 541 256 486 161 b 255 76 363 78 310 76 l 167 76 z "},"E":{"ha":694,"x_min":0,"x_max":0,"o":"m 82 867 l 82 0 l 609 0 l 609 86 l 174 86 l 174 408 l 536 408 l 536 496 l 174 496 l 174 780 l 612 780 l 612 867 z "},"F":{"ha":694,"x_min":0,"x_max":0,"o":"m 108 867 l 108 0 l 206 0 l 206 426 l 530 426 l 530 509 l 206 509 l 206 781 l 606 781 l 606 867 z "},"G":{"ha":694,"x_min":0,"x_max":0,"o":"m 385 874 b 50 422 270 874 50 802 b 385 -13 50 95 234 -13 b 639 77 465 -13 557 17 l 639 415 l 392 415 l 392 331 l 549 331 l 549 125 b 393 72 500 90 445 72 b 229 148 337 72 276 94 b 146 443 156 230 146 351 b 190 665 146 523 156 601 b 384 789 234 749 312 789 b 550 687 462 789 523 745 b 568 659 554 677 557 666 l 636 729 b 385 874 587 818 492 874 z "},"H":{"ha":694,"x_min":0,"x_max":0,"o":"m 76 865 l 76 0 l 176 0 l 176 412 l 514 412 l 514 -1 l 612 -1 l 612 834 b 622 860 612 849 622 849 b 621 865 622 862 622 864 l 515 865 l 515 495 l 176 495 l 176 832 b 185 859 176 847 185 848 b 183 865 185 861 184 863 z "},"I":{"ha":694,"x_min":0,"x_max":0,"o":"m 122 865 l 122 784 l 283 784 l 283 80 l 113 80 l 113 -1 l 560 -1 l 560 79 l 380 79 l 380 784 l 551 784 l 551 865 z "},"J":{"ha":694,"x_min":0,"x_max":0,"o":"m 239 865 l 239 784 l 405 784 l 405 289 b 374 126 405 235 406 174 b 272 70 351 91 313 70 b 142 134 199 70 145 130 b 133 159 135 142 141 152 l 68 80 b 270 -16 120 19 194 -16 b 467 100 352 -16 427 25 b 501 290 500 162 501 227 l 501 784 l 634 784 l 634 865 z "},"K":{"ha":694,"x_min":0,"x_max":0,"o":"m 59 867 l 59 0 l 162 0 l 162 358 l 230 433 l 531 -6 b 654 -1 531 -6 586 -1 l 304 491 l 632 865 l 596 865 b 524 873 572 865 548 867 l 162 466 l 162 831 b 167 847 162 837 162 840 b 175 867 170 851 177 857 z "},"L":{"ha":694,"x_min":0,"x_max":0,"o":"m 92 865 l 92 -1 l 610 -1 l 610 83 l 193 83 l 193 819 b 200 844 193 831 196 836 b 205 865 202 847 206 856 z "},"M":{"ha":694,"x_min":0,"x_max":0,"o":"m 56 865 l 56 -1 l 147 -1 l 147 648 l 322 304 l 360 304 l 547 653 l 547 -1 l 639 -1 l 639 867 l 566 867 l 348 442 l 133 865 z "},"N":{"ha":694,"x_min":0,"x_max":0,"o":"m 70 0 l 163 0 l 163 681 l 544 -1 l 621 -1 l 621 829 b 626 849 621 839 623 843 b 630 867 628 852 632 859 l 527 867 l 527 224 l 164 865 l 70 865 z "},"O":{"ha":694,"x_min":0,"x_max":0,"o":"m 654 431 b 601 712 654 512 649 619 b 352 875 545 823 446 875 b 41 434 223 875 41 774 b 353 -13 41 94 221 -13 b 603 154 446 -13 546 39 b 654 431 649 247 654 355 z m 348 784 b 524 647 409 784 483 747 b 557 418 553 574 557 491 b 519 199 557 362 554 273 b 353 81 479 114 412 81 b 137 447 256 81 137 171 b 348 784 137 705 257 784 z "},"P":{"ha":694,"x_min":0,"x_max":0,"o":"m 82 865 l 82 0 l 182 0 l 182 382 l 352 382 l 352 382 b 511 410 406 382 458 384 b 633 622 591 451 633 534 b 509 836 633 709 591 794 b 345 865 455 864 401 865 z m 182 774 l 345 774 b 451 756 381 774 416 773 b 533 617 505 729 533 674 b 456 485 533 562 507 511 b 356 467 423 468 390 467 l 181 467 z "},"Q":{"ha":694,"x_min":0,"x_max":0,"o":"m 348 786 b 526 648 409 786 484 750 b 561 417 556 574 561 490 b 354 77 561 130 427 77 b 135 448 252 77 135 174 b 348 786 135 702 254 786 z m 654 429 b 602 710 654 511 649 618 b 352 875 546 822 447 875 b 41 434 223 875 41 775 b 314 -10 41 126 188 10 b 397 -180 313 -89 334 -149 b 611 -201 451 -207 511 -201 l 614 -107 b 501 -114 570 -109 532 -114 b 399 -9 414 -114 401 -57 b 603 153 478 5 555 57 b 654 429 649 246 654 353 z "},"R":{"ha":694,"x_min":0,"x_max":0,"o":"m 78 865 l 78 0 l 176 0 l 176 382 l 344 382 l 536 0 l 645 0 l 445 386 b 621 628 550 415 621 513 b 499 836 621 715 578 796 b 333 865 444 864 389 865 z m 176 774 l 333 774 b 439 756 369 774 404 773 b 521 617 493 729 521 674 b 444 485 521 562 495 511 b 344 467 411 468 378 467 l 176 467 z "},"S":{"ha":694,"x_min":0,"x_max":0,"o":"m 604 762 b 364 870 545 832 458 870 b 100 648 208 870 100 767 b 192 480 100 598 120 533 b 463 350 273 420 397 391 b 535 230 520 314 535 269 b 347 73 535 155 472 73 b 140 169 252 73 178 120 b 136 183 135 174 136 178 b 129 197 136 186 136 193 l 72 97 b 344 -14 140 23 237 -14 b 632 236 554 -14 632 127 b 565 392 632 281 619 341 b 289 534 490 463 368 488 b 200 663 216 576 200 628 b 356 790 200 730 257 790 b 532 704 437 790 499 753 b 536 691 536 699 535 696 b 543 680 536 683 540 681 z "},"T":{"ha":694,"x_min":0,"x_max":0,"o":"m 43 867 l 43 779 l 289 779 l 289 -1 l 387 -1 l 387 779 l 642 779 l 642 867 z "},"U":{"ha":694,"x_min":0,"x_max":0,"o":"m 70 865 l 70 298 l 70 298 b 103 119 70 237 71 178 b 349 -16 151 30 247 -16 b 596 120 449 -16 547 29 b 630 303 629 180 630 240 l 630 865 l 538 865 l 538 301 b 516 168 538 256 537 213 b 351 67 484 102 419 67 b 186 170 283 67 217 103 b 165 297 166 212 165 254 l 165 821 b 171 839 165 827 166 832 b 180 858 175 844 180 850 b 179 865 180 861 180 863 z "},"V":{"ha":694,"x_min":0,"x_max":0,"o":"m 35 867 l 330 -6 l 374 -6 l 664 865 l 568 865 l 358 201 l 137 867 z "},"W":{"ha":694,"x_min":0,"x_max":0,"o":"m 24 865 l 163 -6 l 203 -6 l 354 566 l 502 -6 l 541 -6 l 677 865 l 596 865 l 517 278 l 376 802 l 346 802 l 207 280 l 114 865 z "},"X":{"ha":694,"x_min":0,"x_max":0,"o":"m 526 867 l 348 538 l 165 867 l 61 867 l 293 441 l 56 0 l 163 0 l 348 343 l 541 0 l 650 0 l 404 444 l 623 867 z "},"Y":{"ha":694,"x_min":0,"x_max":0,"o":"m 40 867 l 306 342 l 306 0 l 411 0 l 411 342 l 657 865 l 554 865 l 362 446 l 150 867 z "},"Z":{"ha":694,"x_min":0,"x_max":0,"o":"m 86 865 l 86 778 l 506 778 l 70 67 l 70 -1 l 642 -1 l 642 93 b 601 85 625 96 620 85 l 192 85 l 620 797 l 621 865 z "},"[":{"ha":694,"x_min":0,"x_max":0,"o":"m 182 930 l 182 -123 l 580 -123 l 580 -44 l 271 -44 l 271 847 l 579 847 l 579 930 z "},"\\":{"ha":694,"x_min":0,"x_max":0,"o":"m 606 -18 l 171 923 l 89 881 l 525 -59 z "},"]":{"ha":694,"x_min":0,"x_max":0,"o":"m 513 930 l 116 930 l 116 847 l 424 847 l 424 -44 l 115 -44 l 115 -123 l 513 -123 z "},"^":{"ha":694,"x_min":0,"x_max":0,"o":"m 129 509 l 199 476 l 351 719 l 485 476 l 560 511 l 372 865 l 342 865 z "},"_":{"ha":694,"x_min":0,"x_max":0,"o":"m 48 -26 l 48 -111 l 647 -111 l 647 -26 z "},"`":{"ha":694,"x_min":0,"x_max":0,"o":"m 305 640 b 408 615 345 592 387 597 b 404 711 428 632 439 669 b 341 773 385 734 360 750 b 302 841 323 794 311 818 l 265 932 l 194 897 l 227 805 b 305 640 262 710 281 668 z "},"a":{"ha":694,"x_min":0,"x_max":0,"o":"m 126 560 l 175 496 b 357 567 227 551 298 567 b 488 506 432 567 470 535 b 508 397 509 471 508 430 l 508 374 l 488 374 b 214 345 394 374 294 375 b 68 164 114 308 68 234 b 282 -16 68 71 149 -16 b 509 70 360 -16 440 13 l 509 0 l 604 0 l 604 393 b 573 543 604 445 602 494 b 352 649 531 612 451 649 b 126 560 267 649 185 621 z m 512 297 l 512 255 b 469 136 512 222 512 181 b 302 61 446 111 385 61 b 169 171 218 61 169 114 b 281 288 169 217 201 269 b 489 297 338 301 423 297 z "},"b":{"ha":694,"x_min":0,"x_max":0,"o":"m 83 924 l 83 0 l 147 0 l 182 84 b 370 -16 224 22 294 -16 b 635 325 500 -16 635 95 b 380 650 635 547 505 650 b 185 537 299 650 225 607 l 185 893 b 193 909 185 900 186 903 b 200 924 195 910 203 916 z m 345 564 b 531 304 405 564 531 528 b 344 74 531 110 406 74 b 188 213 300 74 204 92 b 185 338 184 246 185 283 b 201 471 185 395 187 436 b 345 564 225 528 282 564 z "},"c":{"ha":694,"x_min":0,"x_max":0,"o":"m 634 530 b 397 647 584 603 499 647 b 78 317 210 647 78 507 b 390 -16 78 126 211 -16 b 624 85 479 -16 564 20 l 567 152 b 399 75 524 104 462 75 b 181 327 275 75 181 179 b 390 562 181 472 274 562 b 555 479 499 562 551 487 b 563 447 560 468 552 455 z "},"d":{"ha":694,"x_min":0,"x_max":0,"o":"m 515 542 b 329 651 485 607 417 651 b 62 323 208 651 62 565 b 315 -14 62 88 192 -14 b 511 102 396 -14 471 31 l 511 47 b 517 0 511 32 512 15 l 616 0 b 610 59 611 19 610 40 l 609 885 b 614 903 609 892 610 896 b 622 924 617 908 623 915 l 515 924 z m 334 569 b 497 446 390 569 472 540 b 507 310 505 416 507 381 b 494 194 507 262 504 226 b 338 74 470 118 404 74 b 159 339 266 74 159 130 b 334 569 159 520 261 569 z "},"e":{"ha":694,"x_min":0,"x_max":0,"o":"m 359 650 b 67 310 208 650 67 542 b 372 -15 67 99 200 -15 b 599 84 463 -15 545 19 l 544 138 b 380 66 503 92 443 66 b 165 303 295 66 172 113 l 615 303 b 610 424 619 347 617 388 b 359 650 582 595 463 650 z m 168 380 b 352 573 188 530 284 573 b 517 380 455 573 529 483 z "},"f":{"ha":694,"x_min":0,"x_max":0,"o":"m 477 932 b 260 821 388 932 305 893 b 225 659 228 768 225 716 l 225 597 l 87 597 l 87 518 l 225 518 l 225 0 l 321 0 l 321 518 l 529 518 l 529 597 l 321 597 l 321 646 b 344 783 321 692 321 741 b 472 853 370 830 419 853 b 611 781 533 853 584 821 b 614 764 615 774 614 770 b 626 753 615 755 621 752 l 671 845 b 477 932 626 900 557 932 z "},"g":{"ha":694,"x_min":0,"x_max":0,"o":"m 175 437 b 315 576 175 514 238 576 b 454 437 392 576 454 514 b 315 297 454 360 392 297 b 175 437 237 297 175 360 z m 321 655 b 84 431 194 655 84 555 b 177 259 84 361 119 297 b 106 136 132 220 106 177 b 156 52 106 110 116 73 b 53 -89 88 8 53 -38 b 340 -239 53 -158 118 -239 b 632 -45 555 -239 632 -130 b 533 93 632 10 601 65 b 319 111 467 120 391 111 b 228 119 271 111 242 115 b 190 160 204 125 190 140 b 235 231 190 194 229 226 b 316 217 261 222 288 217 b 544 434 441 217 544 317 b 512 542 544 473 533 510 b 623 572 545 562 584 572 b 659 569 635 572 647 571 l 647 651 b 471 595 583 656 520 636 b 321 655 432 633 379 655 z m 224 34 b 330 26 248 31 282 28 b 465 23 377 25 428 28 b 540 -51 524 14 540 -23 b 481 -135 540 -79 525 -112 b 338 -163 435 -161 381 -163 b 208 -143 309 -163 255 -162 b 145 -65 156 -122 145 -87 b 224 34 145 -19 188 14 z "},"h":{"ha":694,"x_min":0,"x_max":0,"o":"m 97 0 l 199 0 l 199 366 b 231 475 199 408 204 439 b 383 563 255 507 316 563 b 469 523 415 563 446 550 b 503 382 503 482 503 427 l 503 0 l 602 0 l 602 385 l 602 385 b 579 538 602 434 601 487 b 410 650 547 609 482 650 b 199 523 324 650 246 593 l 199 891 b 204 904 199 895 199 899 b 213 919 207 907 213 912 b 212 923 213 920 213 922 l 97 923 z "},"i":{"ha":694,"x_min":0,"x_max":0,"o":"m 147 635 l 147 554 l 301 554 l 301 80 l 139 80 l 139 0 l 550 0 l 550 80 l 402 80 l 402 635 z m 354 911 b 282 840 314 911 282 879 b 354 768 282 800 314 768 b 426 840 393 768 426 800 b 354 911 426 879 393 911 z "},"j":{"ha":694,"x_min":0,"x_max":0,"o":"m 175 635 l 175 553 l 411 553 l 411 25 b 395 -76 411 -9 411 -42 b 267 -156 371 -127 321 -156 b 144 -93 191 -156 149 -101 b 132 -67 138 -83 140 -74 l 67 -153 b 261 -242 113 -210 182 -242 b 483 -116 351 -242 440 -200 b 512 44 510 -62 512 -10 l 512 635 z m 463 911 b 391 840 423 911 391 879 b 463 768 391 800 423 768 b 535 840 502 768 535 800 b 463 911 535 879 502 911 z "},"k":{"ha":694,"x_min":0,"x_max":0,"o":"m 92 923 l 92 -1 l 193 -1 l 193 240 l 277 318 l 536 -6 b 656 -1 536 -6 589 -1 b 665 -1 659 -1 662 -1 l 354 379 l 621 630 l 585 630 b 511 638 561 630 535 632 l 193 343 l 193 887 b 198 903 193 893 193 897 b 206 923 202 907 208 914 z "},"l":{"ha":694,"x_min":0,"x_max":0,"o":"m 117 923 l 117 843 l 297 843 l 297 80 l 109 80 l 109 0 l 585 0 l 585 80 l 398 80 l 398 923 z "},"m":{"ha":694,"x_min":0,"x_max":0,"o":"m 53 0 l 144 0 l 144 423 b 164 514 144 453 146 481 b 241 573 187 557 215 573 b 299 524 263 573 289 559 b 306 441 308 498 306 467 l 306 0 l 399 0 l 399 420 b 426 520 399 453 402 480 b 500 577 436 537 461 577 b 550 541 520 577 540 565 b 559 449 562 515 559 478 l 559 -1 l 653 -1 l 653 451 b 627 599 653 503 655 557 b 528 650 603 636 564 650 b 386 557 467 650 411 613 b 274 650 376 610 331 650 b 144 572 222 650 173 616 l 145 634 l 53 634 z "},"n":{"ha":694,"x_min":0,"x_max":0,"o":"m 95 0 l 197 0 l 197 366 b 228 475 197 408 202 439 b 380 563 252 507 313 563 b 466 523 412 563 444 550 b 501 382 501 482 501 427 l 501 0 l 599 0 l 599 385 l 599 385 b 576 538 599 434 599 487 b 407 650 545 609 480 650 b 197 523 321 650 243 593 l 197 634 l 95 634 z "},"o":{"ha":694,"x_min":0,"x_max":0,"o":"m 639 314 b 357 648 639 533 501 648 b 56 312 195 648 56 508 b 354 -17 56 119 194 -17 b 639 314 504 -17 639 104 z m 350 563 b 538 310 441 563 538 484 b 354 70 538 151 447 70 b 162 321 253 70 162 164 b 350 563 162 477 253 563 z "},"p":{"ha":694,"x_min":0,"x_max":0,"o":"m 83 634 l 84 -231 l 186 -231 l 186 84 b 376 -17 228 21 299 -17 b 642 324 506 -17 642 92 b 385 648 642 548 510 648 b 185 537 304 648 228 606 l 185 634 z m 348 563 b 538 304 404 563 538 534 b 348 72 538 104 407 72 b 203 159 288 72 228 102 b 184 346 184 202 184 254 b 201 471 184 400 187 438 b 348 563 225 528 284 563 z "},"q":{"ha":694,"x_min":0,"x_max":0,"o":"m 519 542 b 334 651 519 541 475 651 b 59 323 195 651 59 539 b 320 -14 59 118 179 -14 b 514 102 400 -14 475 31 l 514 -231 l 614 -231 l 614 634 l 519 634 z m 338 569 b 495 461 395 569 468 539 b 511 310 508 426 511 386 b 498 194 511 262 508 227 b 342 74 473 119 408 74 b 159 337 251 74 159 158 b 338 569 159 503 253 569 z "},"r":{"ha":694,"x_min":0,"x_max":0,"o":"m 138 634 l 138 -1 l 239 -1 l 239 308 b 283 457 239 346 240 388 b 461 564 341 548 417 564 b 566 516 515 564 548 539 b 590 484 575 505 579 494 l 636 580 b 467 649 597 621 538 649 b 239 512 374 649 280 603 l 242 634 z "},"s":{"ha":694,"x_min":0,"x_max":0,"o":"m 601 550 b 364 650 542 615 458 650 b 120 473 216 650 120 567 b 274 309 120 362 240 321 b 445 251 328 290 398 273 b 508 170 497 226 508 193 b 345 70 508 110 436 70 b 147 158 236 70 167 135 b 143 173 142 163 143 167 b 137 186 143 175 143 183 l 79 86 b 347 -14 154 17 251 -14 b 611 184 520 -14 611 88 b 518 327 611 228 593 285 b 285 410 446 367 344 382 b 222 488 233 435 222 466 b 355 574 222 539 284 574 b 532 487 446 574 507 518 b 535 474 535 482 535 479 b 542 463 534 466 539 463 z "},"t":{"ha":694,"x_min":0,"x_max":0,"o":"m 261 804 l 249 634 l 98 634 l 97 553 l 246 553 b 233 228 237 444 233 336 b 270 55 233 171 233 107 b 414 -12 300 13 350 -12 b 617 59 490 -12 564 19 l 586 138 b 444 80 532 98 483 80 b 337 182 397 80 347 106 b 333 304 336 188 333 212 b 345 553 333 387 337 470 l 554 553 l 554 635 l 346 635 b 363 785 346 635 356 750 b 370 822 365 800 375 808 z "},"u":{"ha":694,"x_min":0,"x_max":0,"o":"m 87 634 l 86 280 b 111 114 86 225 87 170 b 309 -16 149 30 226 -16 b 505 97 388 -16 463 27 l 503 49 b 506 0 503 33 503 16 l 611 0 b 604 58 605 19 604 39 l 604 634 l 503 634 l 503 285 b 478 160 503 236 500 199 b 332 66 449 107 393 66 b 211 144 282 66 236 93 b 188 280 188 188 188 238 l 188 634 z "},"v":{"ha":694,"x_min":0,"x_max":0,"o":"m 55 635 l 307 -5 l 385 -5 l 539 357 b 634 635 577 446 613 539 l 544 635 b 458 372 527 543 494 455 l 356 135 l 173 599 b 171 608 171 602 171 605 b 175 635 171 617 177 624 z "},"w":{"ha":694,"x_min":0,"x_max":0,"o":"m 22 635 l 150 -1 l 240 -1 l 351 410 l 469 -1 l 562 -1 b 668 634 605 209 640 421 l 575 634 b 517 126 578 557 571 487 l 382 575 l 321 575 l 212 125 l 120 583 b 121 608 118 592 118 597 b 123 635 123 615 127 624 z "},"x":{"ha":694,"x_min":0,"x_max":0,"o":"m 503 635 l 345 400 l 179 635 l 70 635 l 289 322 l 66 0 l 179 0 l 344 247 l 519 0 l 633 0 l 400 326 l 605 635 z "},"y":{"ha":694,"x_min":0,"x_max":0,"o":"m 64 634 l 321 2 l 301 -44 b 257 -118 290 -70 277 -97 b 168 -159 231 -146 198 -159 b 94 -121 121 -159 97 -128 b 83 -98 90 -114 91 -105 l 31 -188 b 169 -241 68 -223 116 -241 b 328 -172 226 -241 285 -220 b 382 -72 355 -141 369 -108 l 580 452 b 644 635 603 512 625 573 l 539 635 b 491 466 529 577 511 521 l 370 126 l 185 593 b 182 604 183 597 182 600 b 188 634 182 615 189 622 z "},"z":{"ha":694,"x_min":0,"x_max":0,"o":"m 98 635 l 98 548 l 463 548 l 70 67 l 70 -1 l 624 -1 l 624 93 b 583 85 607 96 602 85 l 205 85 l 592 567 l 592 635 z "},"{":{"ha":694,"x_min":0,"x_max":0,"o":"m 73 394 l 73 316 l 102 316 b 190 289 125 316 161 317 b 226 162 217 262 226 222 b 221 23 226 118 221 77 b 298 -179 221 -28 225 -123 b 515 -221 358 -225 430 -221 l 566 -221 l 566 -143 l 514 -143 b 376 -119 457 -143 414 -145 b 319 24 326 -85 319 -24 b 323 140 319 60 323 97 b 206 356 323 285 259 338 b 305 449 249 374 284 407 b 327 561 323 487 327 528 b 323 659 327 595 323 625 b 379 788 323 687 325 754 b 519 805 416 811 458 805 l 567 805 l 567 885 l 525 885 b 295 829 450 885 361 890 b 226 643 234 773 226 695 b 230 544 226 609 230 577 b 194 426 230 510 226 460 b 101 394 163 394 125 394 z "},"|":{"ha":694,"x_min":0,"x_max":0,"o":"m 301 906 l 301 -210 l 394 -210 l 394 906 z "},"}":{"ha":694,"x_min":0,"x_max":0,"o":"m 622 394 l 595 394 b 502 426 570 394 532 394 b 466 544 469 460 466 510 b 469 643 466 577 469 609 b 401 829 469 695 462 773 b 170 885 334 890 245 885 l 128 885 l 128 805 l 176 805 b 317 788 237 805 279 811 b 372 659 370 754 372 687 b 368 561 372 625 368 595 b 390 449 368 528 372 487 b 489 356 411 407 446 374 b 372 140 436 338 372 285 b 376 24 372 97 376 60 b 319 -119 376 -24 369 -85 b 181 -143 281 -145 238 -143 l 129 -143 l 129 -221 l 180 -221 b 397 -179 266 -221 337 -225 b 474 23 470 -123 474 -28 b 469 162 474 77 469 118 b 506 289 469 222 478 262 b 593 316 534 317 570 316 l 622 316 z "},"~":{"ha":694,"x_min":0,"x_max":0,"o":"m 127 475 b 242 560 162 532 203 560 b 468 450 327 560 356 450 b 660 578 555 450 624 523 l 597 630 b 479 541 557 576 524 541 b 248 645 399 541 363 645 b 58 520 170 645 99 590 z "}," ":{"ha":694,"x_min":0,"x_max":0,"o":""},"¡":{"ha":694,"x_min":0,"x_max":0,"o":"m 250 846 b 333 763 250 800 287 763 b 415 846 378 763 415 800 b 333 928 415 891 378 928 b 250 846 287 928 250 891 z m 330 -16 b 391 29 354 -16 379 -1 b 401 89 398 44 401 63 b 387 259 401 134 392 168 l 367 642 l 297 642 l 272 259 b 259 100 269 206 259 153 b 264 44 259 68 262 52 b 330 -16 275 2 304 -16 z "},"¢":{"ha":694,"x_min":0,"x_max":0,"o":"m 396 867 l 376 710 b 67 379 190 701 67 565 b 294 58 67 218 158 95 l 274 -99 l 355 -109 l 375 46 b 385 46 379 46 382 46 b 620 145 476 46 560 80 l 569 212 b 388 134 521 163 455 134 l 387 134 l 451 620 b 555 554 502 605 537 575 b 559 532 562 545 559 539 b 566 518 559 530 559 522 l 627 597 b 462 705 593 649 538 689 l 477 819 b 484 838 478 828 480 831 b 489 857 486 841 490 848 z m 306 150 b 165 391 222 183 165 270 b 366 630 165 537 252 623 z "},"£":{"ha":694,"x_min":0,"x_max":0,"o":"m 580 795 b 400 865 530 840 466 865 b 156 614 271 865 156 769 b 166 525 156 584 160 554 l 93 525 l 93 446 l 184 446 b 205 308 195 401 205 355 b 157 139 205 245 188 187 b 54 68 135 105 119 98 l 90 -11 b 261 42 179 36 233 42 b 508 -21 362 42 420 -21 b 653 37 569 -21 622 12 l 616 109 b 513 71 588 85 552 71 b 284 128 434 71 376 128 b 247 125 272 128 259 127 b 298 311 280 178 298 242 b 279 446 298 358 289 403 l 398 446 l 398 525 l 260 525 b 249 615 254 555 249 585 b 397 786 249 730 323 786 b 500 746 455 786 495 753 b 519 718 509 737 508 726 z "},"€":{"ha":694,"x_min":0,"x_max":0,"o":"m 645 797 b 457 872 597 846 530 872 b 184 712 370 872 255 836 b 135 575 161 671 145 625 l 64 575 l 46 495 l 123 495 b 119 406 120 466 119 436 b 119 384 119 398 119 391 l 64 384 l 46 303 l 126 303 b 449 -16 162 46 336 -16 b 642 55 521 -16 589 9 l 603 125 b 454 68 562 88 510 68 b 270 162 390 68 319 96 b 214 303 242 200 224 247 l 460 303 l 491 384 l 206 384 b 205 413 206 393 205 403 b 209 495 205 444 207 472 l 533 495 l 563 575 l 220 575 b 227 602 223 586 225 595 b 452 792 268 744 369 792 b 598 731 545 792 597 733 b 610 702 606 722 600 710 z "},"¥":{"ha":694,"x_min":0,"x_max":0,"o":"m 50 867 l 310 410 l 310 381 l 116 381 l 116 302 l 310 302 l 310 215 l 116 215 l 116 137 l 310 137 l 310 0 l 405 0 l 405 137 l 592 137 l 592 215 l 405 215 l 405 302 l 592 302 l 592 381 l 405 381 l 405 410 l 647 865 l 544 865 l 360 505 l 158 867 z "},"Š":{"ha":694,"x_min":0,"x_max":0,"o":"m 559 1049 l 519 1096 l 364 1001 l 221 1099 l 175 1046 l 346 911 l 376 911 z m 604 762 b 364 870 545 832 458 870 b 100 648 208 870 100 767 b 192 480 100 598 120 533 b 463 350 273 420 397 391 b 535 230 520 314 535 269 b 347 73 535 155 472 73 b 140 169 252 73 178 120 b 136 183 135 174 136 178 b 129 197 136 186 136 193 l 72 97 b 344 -14 140 23 237 -14 b 632 236 554 -14 632 127 b 565 392 632 281 619 341 b 289 534 490 463 368 488 b 200 663 216 576 200 628 b 356 790 200 730 257 790 b 532 704 437 790 499 753 b 536 691 536 699 535 696 b 543 680 536 683 540 681 z "},"§":{"ha":694,"x_min":0,"x_max":0,"o":"m 573 810 b 357 933 530 886 449 933 b 131 736 227 933 131 841 b 223 579 131 680 157 620 b 110 439 157 555 110 502 b 198 304 110 391 137 341 b 404 224 267 264 346 259 b 468 126 451 197 468 158 b 331 16 468 68 416 16 b 175 104 226 16 179 93 b 163 128 172 112 174 124 l 90 43 b 331 -76 148 -33 238 -76 b 567 129 471 -76 567 20 b 478 290 567 188 539 249 b 580 424 538 315 580 366 b 453 581 580 474 550 535 b 305 641 397 608 345 620 b 231 744 244 673 231 716 b 358 851 231 802 284 851 b 484 769 431 851 473 801 b 495 741 488 760 485 748 z m 274 554 b 396 509 317 536 360 527 b 476 400 460 477 476 432 b 426 317 476 364 456 332 b 286 364 376 337 328 344 b 211 467 227 393 211 436 b 274 554 211 507 237 541 z "},"š":{"ha":694,"x_min":0,"x_max":0,"o":"m 524 915 l 471 962 l 358 821 l 251 964 l 186 916 l 339 719 l 369 719 z m 601 550 b 364 650 542 615 458 650 b 120 473 216 650 120 567 b 274 309 120 362 240 321 b 445 251 328 290 398 273 b 508 170 497 226 508 193 b 345 70 508 110 436 70 b 147 158 236 70 167 135 b 143 173 142 163 143 167 b 137 186 143 175 143 183 l 79 86 b 347 -14 154 17 251 -14 b 611 184 520 -14 611 88 b 518 327 611 228 593 285 b 285 410 446 367 344 382 b 222 488 233 435 222 466 b 355 574 222 539 284 574 b 532 487 446 574 507 518 b 535 474 535 482 535 479 b 542 463 534 466 539 463 z "},"©":{"ha":694,"x_min":0,"x_max":0,"o":"m 364 589 b 159 383 252 589 159 501 b 362 169 159 267 249 169 b 533 264 430 169 495 205 l 472 304 b 368 242 452 266 412 242 b 237 392 295 242 237 308 b 367 519 237 478 301 519 b 460 461 436 519 457 471 b 465 433 462 452 457 442 l 537 460 b 364 589 519 534 451 589 z m 355 26 b 692 381 539 26 692 183 b 356 736 692 580 539 736 b 19 380 172 736 19 579 b 355 26 19 183 171 26 z m 82 381 b 357 677 82 548 208 677 b 632 382 507 677 632 548 b 357 86 632 215 506 86 b 82 381 207 86 82 215 z "},"ª":{"ha":694,"x_min":0,"x_max":0,"o":"m 170 786 l 218 729 b 348 790 249 772 300 790 b 437 749 392 790 421 773 b 452 677 451 725 452 701 l 452 660 l 431 660 b 224 631 363 660 286 664 b 141 502 166 600 141 548 b 305 357 141 425 209 357 b 453 417 359 357 412 378 l 453 370 l 541 370 l 541 674 b 524 773 541 710 539 742 b 357 865 496 835 432 865 b 170 786 291 865 220 844 z m 455 589 l 455 565 b 425 476 455 532 455 504 b 319 432 400 453 361 432 b 231 506 265 432 231 467 b 314 585 231 536 252 574 b 433 589 350 591 397 589 z m 105 286 l 105 211 l 591 211 l 591 286 z "},"«":{"ha":694,"x_min":0,"x_max":0,"o":"m 345 351 l 345 319 l 565 85 l 620 140 l 442 334 l 610 499 l 556 556 z m 93 351 l 93 319 l 313 85 l 368 140 l 191 334 l 358 499 l 304 556 z "},"¬":{"ha":694,"x_min":0,"x_max":0,"o":"m 127 482 l 127 394 l 487 394 l 487 218 l 575 218 l 575 482 z "},"­":{"ha":694,"x_min":0,"x_max":0,"o":"m 98 483 l 98 391 l 598 391 l 598 483 z "},"®":{"ha":694,"x_min":0,"x_max":0,"o":"m 355 26 b 692 381 539 26 692 183 b 356 736 692 580 539 736 b 19 380 172 736 19 579 b 355 26 19 183 171 26 z m 82 381 b 357 677 82 548 208 677 b 632 382 507 677 632 548 b 357 86 632 215 506 86 b 82 381 207 86 82 215 z m 216 185 l 279 185 l 279 356 l 370 356 l 457 182 l 523 192 l 433 366 b 514 472 481 379 514 423 b 442 576 514 515 489 556 b 346 590 410 590 377 590 l 216 590 z m 279 533 l 348 533 b 420 521 370 533 397 534 b 451 472 441 509 451 490 b 423 425 451 455 442 437 b 351 411 401 411 374 411 l 279 411 z "},"¯":{"ha":694,"x_min":0,"x_max":0,"o":"m 171 863 l 171 785 l 524 785 l 524 863 z "},"°":{"ha":694,"x_min":0,"x_max":0,"o":"m 543 701 b 355 887 543 803 459 887 b 168 701 252 887 168 803 b 355 514 168 598 252 514 b 543 701 459 514 543 598 z m 357 814 b 460 703 413 814 460 765 b 357 591 460 640 413 591 b 253 702 300 591 253 640 b 357 814 253 765 300 814 z "},"±":{"ha":694,"x_min":0,"x_max":0,"o":"m 64 111 l 64 24 l 635 24 l 635 111 z m 308 798 l 308 561 l 62 561 l 62 476 l 308 476 l 308 216 l 396 216 l 396 476 l 633 476 l 633 561 l 396 561 l 396 798 z "},"²":{"ha":694,"x_min":0,"x_max":0,"o":"m 155 770 l 219 726 b 233 755 226 739 225 746 b 356 814 257 786 302 814 b 460 729 422 814 460 773 b 389 621 460 687 429 654 b 168 412 347 587 245 519 l 168 351 l 556 351 l 556 439 b 537 432 547 442 540 435 b 523 427 532 428 529 427 l 270 427 b 479 600 347 513 424 549 b 544 729 499 618 544 664 b 359 885 544 814 469 885 b 155 770 274 885 196 842 z "},"³":{"ha":694,"x_min":0,"x_max":0,"o":"m 358 886 b 174 799 288 886 220 855 l 224 748 b 354 813 257 790 307 813 b 457 731 416 813 457 772 b 342 659 457 699 433 659 b 314 660 332 659 323 660 l 314 591 b 356 593 327 593 341 593 b 478 517 462 593 478 542 b 355 427 478 467 423 427 b 240 472 289 427 247 465 b 221 511 227 485 233 498 l 156 439 b 353 349 206 382 278 349 b 563 509 464 349 563 418 b 461 628 563 567 520 618 b 540 737 508 643 540 686 b 358 886 540 817 461 886 z "},"Ž":{"ha":694,"x_min":0,"x_max":0,"o":"m 551 1049 l 512 1096 l 357 1001 l 213 1099 l 168 1046 l 339 911 l 369 911 z m 86 865 l 86 778 l 506 778 l 70 67 l 70 -1 l 642 -1 l 642 93 b 601 85 625 96 620 85 l 192 85 l 620 797 l 621 865 z "},"µ":{"ha":694,"x_min":0,"x_max":0,"o":"m 34 -231 l 120 -231 b 121 84 121 -127 121 -22 b 279 -16 150 23 212 -16 b 449 93 351 -16 417 27 b 564 -15 457 34 505 -15 b 686 62 615 -15 659 22 l 648 133 b 572 66 648 133 619 66 b 528 93 555 66 539 75 b 517 161 516 114 517 139 l 517 634 l 428 634 l 428 266 b 410 151 428 223 426 187 b 286 60 385 95 336 60 b 173 137 242 60 198 87 b 152 258 154 176 152 216 l 152 634 l 61 634 l 61 280 b 34 -231 61 105 35 -71 z "},"¶":{"ha":694,"x_min":0,"x_max":0,"o":"m 605 924 l 431 924 b 231 895 367 924 298 924 b 89 689 139 855 89 774 b 337 447 89 564 196 456 l 337 -95 l 420 -95 l 420 845 l 525 845 l 525 -95 l 605 -95 z "},"·":{"ha":694,"x_min":0,"x_max":0,"o":"m 414 460 b 331 539 414 503 377 539 b 249 460 286 539 249 503 b 331 380 249 416 286 380 b 414 460 377 380 414 416 z "},"ž":{"ha":694,"x_min":0,"x_max":0,"o":"m 524 915 l 471 962 l 358 821 l 251 964 l 186 916 l 339 719 l 369 719 z m 98 635 l 98 548 l 463 548 l 70 67 l 70 -1 l 624 -1 l 624 93 b 583 85 607 96 602 85 l 205 85 l 592 567 l 592 635 z "},"¹":{"ha":694,"x_min":0,"x_max":0,"o":"m 414 879 l 355 879 l 171 778 l 194 735 l 327 768 l 327 427 l 189 427 l 189 351 l 543 351 l 543 427 l 414 427 z "},"º":{"ha":694,"x_min":0,"x_max":0,"o":"m 350 864 b 133 600 234 864 133 760 b 341 356 133 449 231 356 b 551 617 443 356 551 437 b 350 864 551 784 450 864 z m 217 607 b 343 786 217 726 280 786 b 469 607 407 786 469 726 b 343 436 469 487 403 436 b 217 607 282 436 217 490 z m 105 286 l 105 211 l 591 211 l 591 286 z "},"»":{"ha":694,"x_min":0,"x_max":0,"o":"m 620 351 l 409 556 l 355 499 l 523 334 l 345 140 l 400 85 l 620 319 z m 368 351 l 157 556 l 103 499 l 271 334 l 93 140 l 149 85 l 368 319 z "},"Œ":{"ha":694,"x_min":0,"x_max":0,"o":"m 351 827 b 237 877 322 859 280 877 b 60 738 181 877 106 845 b 13 434 22 651 13 550 b 44 167 13 271 39 184 b 236 -10 84 37 168 -10 b 350 43 281 -10 322 9 l 350 0 l 669 0 l 669 86 l 437 86 l 437 408 l 636 408 l 636 496 l 437 496 l 437 780 l 672 780 l 672 867 l 351 867 z m 102 450 b 129 687 102 597 120 661 b 237 797 154 762 196 797 b 350 674 300 797 335 721 l 350 180 b 249 75 336 118 297 75 b 141 171 217 75 172 95 b 102 450 102 266 102 412 z "},"œ":{"ha":694,"x_min":0,"x_max":0,"o":"m 224 647 b 47 532 159 647 89 610 b 8 328 13 468 8 392 b 47 98 8 255 14 166 b 214 -16 88 13 159 -16 b 351 41 264 -16 314 6 b 509 -16 396 4 452 -16 b 687 59 576 -16 640 11 l 638 119 b 512 65 602 78 552 65 b 384 144 460 65 409 88 b 364 307 369 178 365 219 l 681 307 l 681 322 b 662 528 681 392 684 466 b 494 647 630 614 558 647 b 354 584 440 647 389 624 b 224 647 324 624 276 647 z m 366 386 b 380 496 364 452 377 488 b 483 571 402 554 447 571 b 577 519 519 571 556 555 b 598 398 599 483 598 439 l 598 386 z m 92 342 b 117 483 92 381 95 435 b 223 563 142 536 184 563 b 291 503 260 563 291 540 b 278 328 291 483 278 431 b 295 124 278 207 295 142 b 226 69 295 89 260 69 b 112 171 184 69 136 96 b 92 342 95 226 92 295 z "},"Ÿ":{"ha":694,"x_min":0,"x_max":0,"o":"m 290 1025 b 220 1096 290 1064 259 1096 b 150 1025 181 1096 150 1064 b 220 955 150 987 181 955 b 290 1025 259 955 290 987 z m 537 1025 b 467 1096 537 1064 506 1096 b 398 1025 429 1096 398 1064 b 467 955 398 987 429 955 b 537 1025 506 955 537 987 z m 40 867 l 306 342 l 306 0 l 411 0 l 411 342 l 657 865 l 554 865 l 362 446 l 150 867 z "},"¿":{"ha":694,"x_min":0,"x_max":0,"o":"m 252 844 b 334 765 252 801 288 765 b 416 844 380 765 416 801 b 334 924 416 888 380 924 b 252 844 288 924 252 888 z m 608 127 l 537 193 b 349 73 493 120 420 73 b 203 220 266 73 203 138 b 317 413 203 311 275 367 b 383 592 379 481 383 530 l 383 650 l 291 650 l 291 592 b 231 451 291 543 288 502 b 93 227 185 410 93 357 b 340 -18 93 97 183 -18 b 608 127 444 -18 547 34 z "},"À":{"ha":694,"x_min":0,"x_max":0,"o":"m 252 1099 l 197 1002 l 432 917 l 464 974 z m 20 -1 l 116 -1 l 200 253 l 475 253 l 571 0 l 671 0 l 337 881 l 326 881 z m 453 328 l 219 328 l 331 658 z "},"Á":{"ha":694,"x_min":0,"x_max":0,"o":"m 428 1099 l 216 974 l 248 917 l 483 1002 z m 20 -1 l 116 -1 l 200 253 l 475 253 l 571 0 l 671 0 l 337 881 l 326 881 z m 453 328 l 219 328 l 331 658 z "},"Â":{"ha":694,"x_min":0,"x_max":0,"o":"m 141 961 l 181 915 l 336 1009 l 479 911 l 525 964 l 354 1099 l 324 1099 z m 20 -1 l 116 -1 l 200 253 l 475 253 l 571 0 l 671 0 l 337 881 l 326 881 z m 453 328 l 219 328 l 331 658 z "},"Ã":{"ha":694,"x_min":0,"x_max":0,"o":"m 182 949 b 273 1035 215 1003 236 1035 b 453 930 334 1035 372 930 b 590 1028 504 930 542 969 l 538 1084 b 457 1010 508 1043 492 1010 b 388 1054 432 1010 411 1031 b 277 1114 370 1073 333 1114 b 120 994 223 1114 171 1075 z m 20 -1 l 116 -1 l 200 253 l 475 253 l 571 0 l 671 0 l 337 881 l 326 881 z m 453 328 l 219 328 l 331 658 z "},"Ä":{"ha":694,"x_min":0,"x_max":0,"o":"m 280 1025 b 210 1096 280 1064 249 1096 b 140 1025 172 1096 140 1064 b 210 955 140 987 172 955 b 280 1025 249 955 280 987 z m 527 1025 b 458 1096 527 1064 496 1096 b 388 1025 420 1096 388 1064 b 458 955 388 987 420 955 b 527 1025 496 955 527 987 z m 20 -1 l 116 -1 l 200 253 l 475 253 l 571 0 l 671 0 l 337 881 l 326 881 z m 453 328 l 219 328 l 331 658 z "},"Å":{"ha":694,"x_min":0,"x_max":0,"o":"m 277 983 b 334 1046 277 1019 303 1046 b 392 983 366 1046 392 1019 b 334 919 392 947 366 919 b 277 983 303 919 277 947 z m 453 328 l 219 328 l 331 658 z m 345 860 b 460 982 410 866 460 918 b 333 1104 460 1049 404 1104 b 206 982 262 1104 206 1049 b 319 860 206 919 255 867 l 20 -1 l 116 -1 l 200 253 l 475 253 l 571 0 l 671 0 z "},"Æ":{"ha":694,"x_min":0,"x_max":0,"o":"m 278 867 l 6 0 l 95 0 l 169 235 l 350 235 l 350 0 l 669 0 l 669 86 l 437 86 l 435 408 l 636 408 l 636 496 l 434 496 l 431 780 l 672 780 l 672 867 z m 350 780 l 350 315 l 189 315 l 334 780 z "},"Ç":{"ha":694,"x_min":0,"x_max":0,"o":"m 385 873 b 56 428 251 873 56 774 b 361 -13 56 111 223 -2 l 348 -119 l 388 -119 b 439 -128 404 -119 424 -119 b 454 -152 450 -134 454 -144 b 391 -186 454 -164 445 -186 b 253 -137 349 -186 297 -172 l 218 -194 b 383 -246 270 -231 329 -246 b 533 -143 485 -246 533 -192 b 492 -78 533 -116 519 -91 b 439 -67 475 -69 456 -68 l 416 -66 l 422 -12 b 639 128 511 -1 591 50 l 567 175 b 390 70 527 109 458 70 b 151 436 263 70 151 202 b 382 795 151 666 260 795 b 548 694 450 795 513 755 b 553 680 551 690 553 686 b 552 669 553 676 552 673 b 559 656 552 668 552 660 l 651 701 b 385 873 604 806 500 873 z "},"È":{"ha":694,"x_min":0,"x_max":0,"o":"m 252 1099 l 197 1002 l 432 917 l 464 974 z m 82 867 l 82 0 l 609 0 l 609 86 l 174 86 l 174 408 l 536 408 l 536 496 l 174 496 l 174 780 l 612 780 l 612 867 z "},"É":{"ha":694,"x_min":0,"x_max":0,"o":"m 452 1099 l 240 974 l 272 917 l 507 1002 z m 82 867 l 82 0 l 609 0 l 609 86 l 174 86 l 174 408 l 536 408 l 536 496 l 174 496 l 174 780 l 612 780 l 612 867 z "},"Ê":{"ha":694,"x_min":0,"x_max":0,"o":"m 153 961 l 193 915 l 348 1009 l 491 911 l 537 964 l 366 1099 l 336 1099 z m 82 867 l 82 0 l 609 0 l 609 86 l 174 86 l 174 408 l 536 408 l 536 496 l 174 496 l 174 780 l 612 780 l 612 867 z "},"Ë":{"ha":694,"x_min":0,"x_max":0,"o":"m 290 1025 b 220 1096 290 1064 259 1096 b 150 1025 181 1096 150 1064 b 220 955 150 987 181 955 b 290 1025 259 955 290 987 z m 537 1025 b 467 1096 537 1064 506 1096 b 398 1025 429 1096 398 1064 b 467 955 398 987 429 955 b 537 1025 506 955 537 987 z m 82 867 l 82 0 l 609 0 l 609 86 l 174 86 l 174 408 l 536 408 l 536 496 l 174 496 l 174 780 l 612 780 l 612 867 z "},"Ì":{"ha":694,"x_min":0,"x_max":0,"o":"m 252 1099 l 197 1002 l 432 917 l 464 974 z m 122 865 l 122 784 l 283 784 l 283 80 l 113 80 l 113 -1 l 560 -1 l 560 79 l 380 79 l 380 784 l 551 784 l 551 865 z "},"Í":{"ha":694,"x_min":0,"x_max":0,"o":"m 452 1099 l 240 974 l 272 917 l 507 1002 z m 122 865 l 122 784 l 283 784 l 283 80 l 113 80 l 113 -1 l 560 -1 l 560 79 l 380 79 l 380 784 l 551 784 l 551 865 z "},"Î":{"ha":694,"x_min":0,"x_max":0,"o":"m 140 961 l 180 915 l 334 1009 l 478 911 l 524 964 l 352 1099 l 322 1099 z m 122 865 l 122 784 l 283 784 l 283 80 l 113 80 l 113 -1 l 560 -1 l 560 79 l 380 79 l 380 784 l 551 784 l 551 865 z "},"Ï":{"ha":694,"x_min":0,"x_max":0,"o":"m 285 1025 b 215 1096 285 1064 254 1096 b 145 1025 176 1096 145 1064 b 215 955 145 987 176 955 b 285 1025 254 955 285 987 z m 532 1025 b 463 1096 532 1064 501 1096 b 393 1025 424 1096 393 1064 b 463 955 393 987 424 955 b 532 1025 501 955 532 987 z m 122 865 l 122 784 l 283 784 l 283 80 l 113 80 l 113 -1 l 560 -1 l 560 79 l 380 79 l 380 784 l 551 784 l 551 865 z "},"Ð":{"ha":694,"x_min":0,"x_max":0,"o":"m 109 865 l 109 499 l 42 499 l 42 418 l 109 418 l 109 -1 l 286 -1 b 443 25 348 -1 394 3 b 647 438 576 87 647 253 b 499 814 647 585 603 737 b 303 865 438 859 378 865 z m 199 418 l 344 418 l 344 499 l 199 499 l 199 784 l 297 784 b 481 701 351 784 422 782 b 554 426 533 629 554 522 b 426 115 554 289 510 171 b 282 79 377 82 331 79 l 199 79 z "},"Ñ":{"ha":694,"x_min":0,"x_max":0,"o":"m 188 949 b 279 1035 221 1003 242 1035 b 459 930 340 1035 378 930 b 596 1028 510 930 548 969 l 544 1084 b 463 1010 514 1043 498 1010 b 394 1054 438 1010 417 1031 b 283 1114 376 1073 339 1114 b 126 994 229 1114 177 1075 z m 70 0 l 163 0 l 163 681 l 544 -1 l 621 -1 l 621 829 b 626 849 621 839 623 843 b 630 867 628 852 632 859 l 527 867 l 527 224 l 164 865 l 70 865 z "},"Ò":{"ha":694,"x_min":0,"x_max":0,"o":"m 252 1099 l 197 1002 l 432 917 l 464 974 z m 654 431 b 601 712 654 512 649 619 b 352 875 545 823 446 875 b 41 434 223 875 41 774 b 353 -13 41 94 221 -13 b 603 154 446 -13 546 39 b 654 431 649 247 654 355 z m 348 784 b 524 647 409 784 483 747 b 557 418 553 574 557 491 b 519 199 557 362 554 273 b 353 81 479 114 412 81 b 137 447 256 81 137 171 b 348 784 137 705 257 784 z "},"Ó":{"ha":694,"x_min":0,"x_max":0,"o":"m 452 1099 l 240 974 l 272 917 l 507 1002 z m 654 431 b 601 712 654 512 649 619 b 352 875 545 823 446 875 b 41 434 223 875 41 774 b 353 -13 41 94 221 -13 b 603 154 446 -13 546 39 b 654 431 649 247 654 355 z m 348 784 b 524 647 409 784 483 747 b 557 418 553 574 557 491 b 519 199 557 362 554 273 b 353 81 479 114 412 81 b 137 447 256 81 137 171 b 348 784 137 705 257 784 z "},"Ô":{"ha":694,"x_min":0,"x_max":0,"o":"m 157 961 l 197 915 l 351 1009 l 495 911 l 541 964 l 369 1099 l 339 1099 z m 654 431 b 601 712 654 512 649 619 b 352 875 545 823 446 875 b 41 434 223 875 41 774 b 353 -13 41 94 221 -13 b 603 154 446 -13 546 39 b 654 431 649 247 654 355 z m 348 784 b 524 647 409 784 483 747 b 557 418 553 574 557 491 b 519 199 557 362 554 273 b 353 81 479 114 412 81 b 137 447 256 81 137 171 b 348 784 137 705 257 784 z "},"Õ":{"ha":694,"x_min":0,"x_max":0,"o":"m 188 949 b 279 1035 221 1003 242 1035 b 459 930 340 1035 378 930 b 596 1028 510 930 548 969 l 544 1084 b 463 1010 514 1043 498 1010 b 394 1054 438 1010 417 1031 b 283 1114 376 1073 339 1114 b 126 994 229 1114 177 1075 z m 654 431 b 601 712 654 512 649 619 b 352 875 545 823 446 875 b 41 434 223 875 41 774 b 353 -13 41 94 221 -13 b 603 154 446 -13 546 39 b 654 431 649 247 654 355 z m 348 784 b 524 647 409 784 483 747 b 557 418 553 574 557 491 b 519 199 557 362 554 273 b 353 81 479 114 412 81 b 137 447 256 81 137 171 b 348 784 137 705 257 784 z "},"Ö":{"ha":694,"x_min":0,"x_max":0,"o":"m 290 1025 b 220 1096 290 1064 259 1096 b 150 1025 181 1096 150 1064 b 220 955 150 987 181 955 b 290 1025 259 955 290 987 z m 537 1025 b 467 1096 537 1064 506 1096 b 398 1025 429 1096 398 1064 b 467 955 398 987 429 955 b 537 1025 506 955 537 987 z m 654 431 b 601 712 654 512 649 619 b 352 875 545 823 446 875 b 41 434 223 875 41 774 b 353 -13 41 94 221 -13 b 603 154 446 -13 546 39 b 654 431 649 247 654 355 z m 348 784 b 524 647 409 784 483 747 b 557 418 553 574 557 491 b 519 199 557 362 554 273 b 353 81 479 114 412 81 b 137 447 256 81 137 171 b 348 784 137 705 257 784 z "},"×":{"ha":694,"x_min":0,"x_max":0,"o":"m 531 699 l 356 516 l 183 699 l 117 635 l 292 451 l 117 268 l 180 207 l 353 386 l 529 201 l 593 265 l 417 452 l 597 638 z "},"Ø":{"ha":694,"x_min":0,"x_max":0,"o":"m 348 784 b 467 734 387 784 430 770 l 184 201 b 137 447 155 258 137 338 b 348 784 137 705 257 784 z m 654 431 b 601 712 654 512 649 619 b 574 757 593 728 584 743 l 651 900 l 577 940 l 513 820 b 352 875 464 857 407 875 b 41 434 223 875 41 774 b 131 102 41 279 78 172 l 50 -50 l 122 -87 l 192 42 b 353 -13 244 3 302 -13 b 603 154 446 -13 546 39 b 654 431 649 247 654 355 z m 520 656 l 524 647 b 557 418 553 574 557 491 b 519 199 557 362 554 273 b 353 81 479 114 412 81 b 238 128 315 81 274 95 z "},"Ù":{"ha":694,"x_min":0,"x_max":0,"o":"m 252 1099 l 197 1002 l 432 917 l 464 974 z m 70 865 l 70 298 l 70 298 b 103 119 70 237 71 178 b 349 -16 151 30 247 -16 b 596 120 449 -16 547 29 b 630 303 629 180 630 240 l 630 865 l 538 865 l 538 301 b 516 168 538 256 537 213 b 351 67 484 102 419 67 b 186 170 283 67 217 103 b 165 297 166 212 165 254 l 165 821 b 171 839 165 827 166 832 b 180 858 175 844 180 850 b 179 865 180 861 180 863 z "},"Ú":{"ha":694,"x_min":0,"x_max":0,"o":"m 452 1099 l 240 974 l 272 917 l 507 1002 z m 70 865 l 70 298 l 70 298 b 103 119 70 237 71 178 b 349 -16 151 30 247 -16 b 596 120 449 -16 547 29 b 630 303 629 180 630 240 l 630 865 l 538 865 l 538 301 b 516 168 538 256 537 213 b 351 67 484 102 419 67 b 186 170 283 67 217 103 b 165 297 166 212 165 254 l 165 821 b 171 839 165 827 166 832 b 180 858 175 844 180 850 b 179 865 180 861 180 863 z "},"Û":{"ha":694,"x_min":0,"x_max":0,"o":"m 157 961 l 197 915 l 351 1009 l 495 911 l 541 964 l 369 1099 l 339 1099 z m 70 865 l 70 298 l 70 298 b 103 119 70 237 71 178 b 349 -16 151 30 247 -16 b 596 120 449 -16 547 29 b 630 303 629 180 630 240 l 630 865 l 538 865 l 538 301 b 516 168 538 256 537 213 b 351 67 484 102 419 67 b 186 170 283 67 217 103 b 165 297 166 212 165 254 l 165 821 b 171 839 165 827 166 832 b 180 858 175 844 180 850 b 179 865 180 861 180 863 z "},"Ü":{"ha":694,"x_min":0,"x_max":0,"o":"m 302 1025 b 232 1096 302 1064 271 1096 b 162 1025 193 1096 162 1064 b 232 955 162 987 193 955 b 302 1025 271 955 302 987 z m 549 1025 b 479 1096 549 1064 518 1096 b 410 1025 441 1096 410 1064 b 479 955 410 987 441 955 b 549 1025 518 955 549 987 z m 70 865 l 70 298 l 70 298 b 103 119 70 237 71 178 b 349 -16 151 30 247 -16 b 596 120 449 -16 547 29 b 630 303 629 180 630 240 l 630 865 l 538 865 l 538 301 b 516 168 538 256 537 213 b 351 67 484 102 419 67 b 186 170 283 67 217 103 b 165 297 166 212 165 254 l 165 821 b 171 839 165 827 166 832 b 180 858 175 844 180 850 b 179 865 180 861 180 863 z "},"Ý":{"ha":694,"x_min":0,"x_max":0,"o":"m 452 1099 l 240 974 l 272 917 l 507 1002 z m 40 867 l 306 342 l 306 0 l 411 0 l 411 342 l 657 865 l 554 865 l 362 446 l 150 867 z "},"Þ":{"ha":694,"x_min":0,"x_max":0,"o":"m 82 865 l 82 0 l 180 0 l 180 219 l 352 219 b 511 247 406 219 458 221 b 633 459 591 288 633 371 b 509 673 633 546 591 631 b 345 702 455 701 401 702 l 180 702 l 180 827 b 184 842 180 832 180 836 b 192 860 187 847 192 852 b 191 865 192 862 191 864 z m 180 611 l 345 611 b 451 593 381 611 416 610 b 533 454 505 566 533 511 b 456 322 533 399 507 348 b 356 304 423 305 390 304 l 180 304 z "},"ß":{"ha":694,"x_min":0,"x_max":0,"o":"m 77 0 l 171 0 l 171 590 b 212 780 171 651 172 722 b 338 849 244 827 292 849 b 489 687 420 849 489 778 b 401 538 489 622 453 562 b 337 527 377 528 358 527 l 297 527 l 297 448 l 339 448 b 461 421 384 448 422 445 b 553 251 514 388 553 324 b 388 74 553 150 477 74 b 295 107 354 74 321 86 l 246 29 b 390 -14 289 1 339 -14 b 645 251 532 -14 645 100 b 473 499 645 366 578 466 b 584 685 542 534 584 605 b 332 929 584 817 471 929 b 106 779 238 929 148 875 b 77 587 78 715 77 651 z "},"à":{"ha":694,"x_min":0,"x_max":0,"o":"m 338 971 l 251 912 l 391 725 l 460 767 z m 126 560 l 175 496 b 357 567 227 551 298 567 b 488 506 432 567 470 535 b 508 397 509 471 508 430 l 508 374 l 488 374 b 214 345 394 374 294 375 b 68 164 114 308 68 234 b 282 -16 68 71 149 -16 b 509 70 360 -16 440 13 l 509 0 l 604 0 l 604 393 b 573 543 604 445 602 494 b 352 649 531 612 451 649 b 126 560 267 649 185 621 z m 512 297 l 512 255 b 469 136 512 222 512 181 b 302 61 446 111 385 61 b 169 171 218 61 169 114 b 281 288 169 217 201 269 b 489 297 338 301 423 297 z "},"á":{"ha":694,"x_min":0,"x_max":0,"o":"m 405 971 l 283 767 l 352 725 l 493 912 z m 126 560 l 175 496 b 357 567 227 551 298 567 b 488 506 432 567 470 535 b 508 397 509 471 508 430 l 508 374 l 488 374 b 214 345 394 374 294 375 b 68 164 114 308 68 234 b 282 -16 68 71 149 -16 b 509 70 360 -16 440 13 l 509 0 l 604 0 l 604 393 b 573 543 604 445 602 494 b 352 649 531 612 451 649 b 126 560 267 649 185 621 z m 512 297 l 512 255 b 469 136 512 222 512 181 b 302 61 446 111 385 61 b 169 171 218 61 169 114 b 281 288 169 217 201 269 b 489 297 338 301 423 297 z "},"â":{"ha":694,"x_min":0,"x_max":0,"o":"m 195 756 l 248 708 l 361 850 l 469 707 l 533 755 l 380 952 l 350 952 z m 126 560 l 175 496 b 357 567 227 551 298 567 b 488 506 432 567 470 535 b 508 397 509 471 508 430 l 508 374 l 488 374 b 214 345 394 374 294 375 b 68 164 114 308 68 234 b 282 -16 68 71 149 -16 b 509 70 360 -16 440 13 l 509 0 l 604 0 l 604 393 b 573 543 604 445 602 494 b 352 649 531 612 451 649 b 126 560 267 649 185 621 z m 512 297 l 512 255 b 469 136 512 222 512 181 b 302 61 446 111 385 61 b 169 171 218 61 169 114 b 281 288 169 217 201 269 b 489 297 338 301 423 297 z "},"ã":{"ha":694,"x_min":0,"x_max":0,"o":"m 201 774 b 292 860 235 828 255 860 b 472 755 353 860 391 755 b 609 853 523 755 561 794 l 557 909 b 477 835 527 868 511 835 b 407 879 451 835 430 856 b 296 939 390 898 352 939 b 139 819 242 939 190 900 z m 126 560 l 175 496 b 357 567 227 551 298 567 b 488 506 432 567 470 535 b 508 397 509 471 508 430 l 508 374 l 488 374 b 214 345 394 374 294 375 b 68 164 114 308 68 234 b 282 -16 68 71 149 -16 b 509 70 360 -16 440 13 l 509 0 l 604 0 l 604 393 b 573 543 604 445 602 494 b 352 649 531 612 451 649 b 126 560 267 649 185 621 z m 512 297 l 512 255 b 469 136 512 222 512 181 b 302 61 446 111 385 61 b 169 171 218 61 169 114 b 281 288 169 217 201 269 b 489 297 338 301 423 297 z "},"ä":{"ha":694,"x_min":0,"x_max":0,"o":"m 314 853 b 244 923 314 892 283 923 b 174 853 205 923 174 892 b 244 783 174 814 205 783 b 314 853 283 783 314 814 z m 561 853 b 491 923 561 892 530 923 b 422 853 453 923 422 892 b 491 783 422 814 453 783 b 561 853 530 783 561 814 z m 126 560 l 175 496 b 357 567 227 551 298 567 b 488 506 432 567 470 535 b 508 397 509 471 508 430 l 508 374 l 488 374 b 214 345 394 374 294 375 b 68 164 114 308 68 234 b 282 -16 68 71 149 -16 b 509 70 360 -16 440 13 l 509 0 l 604 0 l 604 393 b 573 543 604 445 602 494 b 352 649 531 612 451 649 b 126 560 267 649 185 621 z m 512 297 l 512 255 b 469 136 512 222 512 181 b 302 61 446 111 385 61 b 169 171 218 61 169 114 b 281 288 169 217 201 269 b 489 297 338 301 423 297 z "},"å":{"ha":694,"x_min":0,"x_max":0,"o":"m 483 840 b 356 962 483 907 427 962 b 229 840 285 962 229 907 b 356 718 229 773 285 718 b 483 840 427 718 483 773 z m 300 841 b 357 905 300 877 326 905 b 415 842 389 905 415 877 b 357 778 415 805 388 778 b 300 841 326 778 300 806 z m 126 560 l 175 496 b 357 567 227 551 298 567 b 488 506 432 567 470 535 b 508 397 509 471 508 430 l 508 374 l 488 374 b 214 345 394 374 294 375 b 68 164 114 308 68 234 b 282 -16 68 71 149 -16 b 509 70 360 -16 440 13 l 509 0 l 604 0 l 604 393 b 573 543 604 445 602 494 b 352 649 531 612 451 649 b 126 560 267 649 185 621 z m 512 297 l 512 255 b 469 136 512 222 512 181 b 302 61 446 111 385 61 b 169 171 218 61 169 114 b 281 288 169 217 201 269 b 489 297 338 301 423 297 z "},"æ":{"ha":694,"x_min":0,"x_max":0,"o":"m 43 572 l 92 511 b 197 571 118 547 158 571 b 298 494 240 571 281 542 b 307 423 306 472 307 449 l 307 387 l 276 386 b 141 359 242 385 193 383 b 14 172 54 320 14 243 b 197 -16 14 67 97 -16 b 354 80 263 -16 324 21 b 528 -16 392 21 457 -16 b 687 59 589 -16 648 12 l 638 116 b 535 66 614 84 576 66 b 406 152 481 66 430 98 b 392 243 393 182 392 210 l 392 308 l 681 320 l 681 373 b 644 568 681 435 681 507 b 505 649 610 624 555 649 b 358 562 446 649 389 616 b 204 648 328 615 271 648 b 43 572 142 648 83 621 z m 307 304 l 307 252 b 298 134 307 203 310 167 b 206 69 282 91 244 69 b 103 177 150 69 103 117 b 170 283 103 217 124 260 b 277 303 205 301 241 302 z m 392 387 l 392 411 b 418 519 392 445 394 482 b 503 571 438 549 469 571 b 588 509 539 571 571 548 b 601 423 600 481 601 452 l 601 396 z "},"ç":{"ha":694,"x_min":0,"x_max":0,"o":"m 634 530 b 397 647 584 603 499 647 b 78 317 210 647 78 507 b 361 -14 78 136 197 0 l 348 -119 l 388 -119 b 439 -128 404 -119 424 -119 b 454 -152 450 -134 454 -144 b 391 -186 454 -164 445 -186 b 253 -137 349 -186 297 -172 l 218 -194 b 383 -246 270 -231 329 -246 b 533 -143 485 -246 533 -192 b 492 -78 533 -116 519 -91 b 439 -67 475 -69 456 -68 l 416 -66 l 422 -14 b 624 85 499 -7 571 28 l 567 152 b 399 75 524 104 462 75 b 181 327 275 75 181 179 b 390 562 181 472 274 562 b 555 479 499 562 551 487 b 563 447 560 468 552 455 z "},"è":{"ha":694,"x_min":0,"x_max":0,"o":"m 338 971 l 251 912 l 391 725 l 460 767 z m 359 650 b 67 310 208 650 67 542 b 372 -15 67 99 200 -15 b 599 84 463 -15 545 19 l 544 138 b 380 66 503 92 443 66 b 165 303 295 66 172 113 l 615 303 b 610 424 619 347 617 388 b 359 650 582 595 463 650 z m 168 380 b 352 573 188 530 284 573 b 517 380 455 573 529 483 z "},"é":{"ha":694,"x_min":0,"x_max":0,"o":"m 405 971 l 283 767 l 352 725 l 493 912 z m 359 650 b 67 310 208 650 67 542 b 372 -15 67 99 200 -15 b 599 84 463 -15 545 19 l 544 138 b 380 66 503 92 443 66 b 165 303 295 66 172 113 l 615 303 b 610 424 619 347 617 388 b 359 650 582 595 463 650 z m 168 380 b 352 573 188 530 284 573 b 517 380 455 573 529 483 z "},"ê":{"ha":694,"x_min":0,"x_max":0,"o":"m 186 756 l 239 708 l 351 850 l 459 707 l 524 755 l 370 952 l 340 952 z m 359 650 b 67 310 208 650 67 542 b 372 -15 67 99 200 -15 b 599 84 463 -15 545 19 l 544 138 b 380 66 503 92 443 66 b 165 303 295 66 172 113 l 615 303 b 610 424 619 347 617 388 b 359 650 582 595 463 650 z m 168 380 b 352 573 188 530 284 573 b 517 380 455 573 529 483 z "},"ë":{"ha":694,"x_min":0,"x_max":0,"o":"m 298 853 b 228 923 298 892 267 923 b 158 853 190 923 158 892 b 228 783 158 814 190 783 b 298 853 267 783 298 814 z m 545 853 b 476 923 545 892 514 923 b 406 853 438 923 406 892 b 476 783 406 814 438 783 b 545 853 514 783 545 814 z m 359 650 b 67 310 208 650 67 542 b 372 -15 67 99 200 -15 b 599 84 463 -15 545 19 l 544 138 b 380 66 503 92 443 66 b 165 303 295 66 172 113 l 615 303 b 610 424 619 347 617 388 b 359 650 582 595 463 650 z m 168 380 b 352 573 188 530 284 573 b 517 380 455 573 529 483 z "},"ì":{"ha":694,"x_min":0,"x_max":0,"o":"m 266 971 l 179 912 l 319 725 l 388 767 z m 147 635 l 147 554 l 301 554 l 301 80 l 139 80 l 139 0 l 550 0 l 550 80 l 402 80 l 402 635 z "},"í":{"ha":694,"x_min":0,"x_max":0,"o":"m 393 971 l 271 767 l 340 725 l 481 912 z m 147 635 l 147 554 l 301 554 l 301 80 l 139 80 l 139 0 l 550 0 l 550 80 l 402 80 l 402 635 z "},"î":{"ha":694,"x_min":0,"x_max":0,"o":"m 157 756 l 210 708 l 322 850 l 430 707 l 495 755 l 342 952 l 312 952 z m 147 635 l 147 554 l 301 554 l 301 80 l 139 80 l 139 0 l 550 0 l 550 80 l 402 80 l 402 635 z "},"ï":{"ha":694,"x_min":0,"x_max":0,"o":"m 282 853 b 212 923 282 892 250 923 b 141 853 173 923 141 892 b 212 783 141 814 173 783 b 282 853 250 783 282 814 z m 529 853 b 459 923 529 892 497 923 b 390 853 421 923 390 892 b 459 783 390 814 421 783 b 529 853 497 783 529 814 z m 147 635 l 147 554 l 301 554 l 301 80 l 139 80 l 139 0 l 550 0 l 550 80 l 402 80 l 402 635 z "},"ð":{"ha":694,"x_min":0,"x_max":0,"o":"m 354 563 b 538 322 426 563 538 515 b 355 70 538 129 433 70 b 162 323 255 70 162 161 b 354 563 162 486 260 563 z m 482 792 l 601 826 l 577 888 l 427 847 b 306 934 384 885 341 914 l 193 911 b 335 822 245 888 292 858 l 191 783 l 216 717 l 393 767 b 512 577 443 712 484 647 b 345 649 470 622 410 649 b 56 309 191 649 56 500 b 356 -17 56 118 195 -17 b 586 113 448 -17 534 29 b 639 352 631 188 639 277 b 482 792 639 554 567 696 z "},"ñ":{"ha":694,"x_min":0,"x_max":0,"o":"m 181 774 b 272 860 214 828 235 860 b 451 755 333 860 371 755 b 589 853 503 755 541 794 l 537 909 b 456 835 507 868 491 835 b 387 879 430 835 409 856 b 276 939 369 898 332 939 b 119 819 222 939 170 900 z m 95 0 l 197 0 l 197 366 b 228 475 197 408 202 439 b 380 563 252 507 313 563 b 466 523 412 563 444 550 b 501 382 501 482 501 427 l 501 0 l 599 0 l 599 385 l 599 385 b 576 538 599 434 599 487 b 407 650 545 609 480 650 b 197 523 321 650 243 593 l 197 634 l 95 634 z "},"ò":{"ha":694,"x_min":0,"x_max":0,"o":"m 338 971 l 251 912 l 391 725 l 460 767 z m 639 314 b 357 648 639 533 501 648 b 56 312 195 648 56 508 b 354 -17 56 119 194 -17 b 639 314 504 -17 639 104 z m 350 563 b 538 310 441 563 538 484 b 354 70 538 151 447 70 b 162 321 253 70 162 164 b 350 563 162 477 253 563 z "},"ó":{"ha":694,"x_min":0,"x_max":0,"o":"m 405 971 l 283 767 l 352 725 l 493 912 z m 639 314 b 357 648 639 533 501 648 b 56 312 195 648 56 508 b 354 -17 56 119 194 -17 b 639 314 504 -17 639 104 z m 350 563 b 538 310 441 563 538 484 b 354 70 538 151 447 70 b 162 321 253 70 162 164 b 350 563 162 477 253 563 z "},"ô":{"ha":694,"x_min":0,"x_max":0,"o":"m 186 756 l 239 708 l 351 850 l 459 707 l 524 755 l 370 952 l 340 952 z m 639 314 b 357 648 639 533 501 648 b 56 312 195 648 56 508 b 354 -17 56 119 194 -17 b 639 314 504 -17 639 104 z m 350 563 b 538 310 441 563 538 484 b 354 70 538 151 447 70 b 162 321 253 70 162 164 b 350 563 162 477 253 563 z "},"õ":{"ha":694,"x_min":0,"x_max":0,"o":"m 188 774 b 279 860 221 828 242 860 b 459 755 340 860 378 755 b 596 853 510 755 548 794 l 544 909 b 463 835 514 868 498 835 b 394 879 438 835 417 856 b 283 939 376 898 339 939 b 126 819 229 939 177 900 z m 639 314 b 357 648 639 533 501 648 b 56 312 195 648 56 508 b 354 -17 56 119 194 -17 b 639 314 504 -17 639 104 z m 350 563 b 538 310 441 563 538 484 b 354 70 538 151 447 70 b 162 321 253 70 162 164 b 350 563 162 477 253 563 z "},"ö":{"ha":694,"x_min":0,"x_max":0,"o":"m 296 853 b 226 923 296 892 265 923 b 156 853 187 923 156 892 b 226 783 156 814 187 783 b 296 853 265 783 296 814 z m 543 853 b 473 923 543 892 512 923 b 404 853 435 923 404 892 b 473 783 404 814 435 783 b 543 853 512 783 543 814 z m 639 314 b 357 648 639 533 501 648 b 56 312 195 648 56 508 b 354 -17 56 119 194 -17 b 639 314 504 -17 639 104 z m 350 563 b 538 310 441 563 538 484 b 354 70 538 151 447 70 b 162 321 253 70 162 164 b 350 563 162 477 253 563 z "},"÷":{"ha":694,"x_min":0,"x_max":0,"o":"m 98 483 l 98 391 l 598 391 l 598 483 z m 417 648 b 355 711 417 683 389 711 b 292 648 320 711 292 683 b 355 586 292 614 320 586 b 417 648 389 586 417 614 z m 417 221 b 355 283 417 255 389 283 b 292 221 320 283 292 255 b 355 158 292 186 320 158 b 417 221 389 158 417 186 z "},"ø":{"ha":694,"x_min":0,"x_max":0,"o":"m 350 563 b 422 546 374 563 399 558 l 208 153 b 162 321 180 195 162 252 b 350 563 162 477 253 563 z m 639 314 b 535 580 639 435 597 524 l 591 681 l 517 720 l 465 626 b 357 648 431 641 394 648 b 56 312 195 648 56 508 b 159 62 56 208 96 120 l 97 -52 l 169 -89 l 225 14 b 354 -17 265 -6 308 -17 b 639 314 504 -17 639 104 z m 487 491 b 538 310 518 450 538 390 b 354 70 538 151 447 70 b 269 94 324 70 295 78 z "},"ù":{"ha":694,"x_min":0,"x_max":0,"o":"m 338 971 l 251 912 l 391 725 l 460 767 z m 87 634 l 86 280 b 111 114 86 225 87 170 b 309 -16 149 30 226 -16 b 505 97 388 -16 463 27 l 503 49 b 506 0 503 33 503 16 l 611 0 b 604 58 605 19 604 39 l 604 634 l 503 634 l 503 285 b 478 160 503 236 500 199 b 332 66 449 107 393 66 b 211 144 282 66 236 93 b 188 280 188 188 188 238 l 188 634 z "},"ú":{"ha":694,"x_min":0,"x_max":0,"o":"m 405 971 l 283 767 l 352 725 l 493 912 z m 87 634 l 86 280 b 111 114 86 225 87 170 b 309 -16 149 30 226 -16 b 505 97 388 -16 463 27 l 503 49 b 506 0 503 33 503 16 l 611 0 b 604 58 605 19 604 39 l 604 634 l 503 634 l 503 285 b 478 160 503 236 500 199 b 332 66 449 107 393 66 b 211 144 282 66 236 93 b 188 280 188 188 188 238 l 188 634 z "},"û":{"ha":694,"x_min":0,"x_max":0,"o":"m 186 756 l 239 708 l 351 850 l 459 707 l 524 755 l 370 952 l 340 952 z m 87 634 l 86 280 b 111 114 86 225 87 170 b 309 -16 149 30 226 -16 b 505 97 388 -16 463 27 l 503 49 b 506 0 503 33 503 16 l 611 0 b 604 58 605 19 604 39 l 604 634 l 503 634 l 503 285 b 478 160 503 236 500 199 b 332 66 449 107 393 66 b 211 144 282 66 236 93 b 188 280 188 188 188 238 l 188 634 z "},"ü":{"ha":694,"x_min":0,"x_max":0,"o":"m 296 853 b 226 923 296 892 265 923 b 156 853 187 923 156 892 b 226 783 156 814 187 783 b 296 853 265 783 296 814 z m 543 853 b 473 923 543 892 512 923 b 404 853 435 923 404 892 b 473 783 404 814 435 783 b 543 853 512 783 543 814 z m 87 634 l 86 280 b 111 114 86 225 87 170 b 309 -16 149 30 226 -16 b 505 97 388 -16 463 27 l 503 49 b 506 0 503 33 503 16 l 611 0 b 604 58 605 19 604 39 l 604 634 l 503 634 l 503 285 b 478 160 503 236 500 199 b 332 66 449 107 393 66 b 211 144 282 66 236 93 b 188 280 188 188 188 238 l 188 634 z "},"ý":{"ha":694,"x_min":0,"x_max":0,"o":"m 405 971 l 283 767 l 352 725 l 493 912 z m 64 634 l 321 2 l 301 -44 b 257 -118 290 -70 277 -97 b 168 -159 231 -146 198 -159 b 94 -121 121 -159 97 -128 b 83 -98 90 -114 91 -105 l 31 -188 b 169 -241 68 -223 116 -241 b 328 -172 226 -241 285 -220 b 382 -72 355 -141 369 -108 l 580 452 b 644 635 603 512 625 573 l 539 635 b 491 466 529 577 511 521 l 370 126 l 185 593 b 182 604 183 597 182 600 b 188 634 182 615 189 622 z "},"þ":{"ha":694,"x_min":0,"x_max":0,"o":"m 84 923 l 84 -231 l 186 -231 l 186 84 b 376 -17 228 21 299 -17 b 642 324 506 -17 642 92 b 385 648 642 548 510 648 b 185 537 304 648 228 606 l 185 877 b 194 923 185 900 195 904 z m 348 563 b 538 304 404 563 538 534 b 348 72 538 104 407 72 b 203 159 288 72 228 102 b 184 346 184 202 184 254 b 201 471 184 400 187 438 b 348 563 225 528 284 563 z "},"ÿ":{"ha":694,"x_min":0,"x_max":0,"o":"m 296 853 b 226 923 296 892 265 923 b 156 853 187 923 156 892 b 226 783 156 814 187 783 b 296 853 265 783 296 814 z m 543 853 b 473 923 543 892 512 923 b 404 853 435 923 404 892 b 473 783 404 814 435 783 b 543 853 512 783 543 814 z m 64 634 l 321 2 l 301 -44 b 257 -118 290 -70 277 -97 b 168 -159 231 -146 198 -159 b 94 -121 121 -159 97 -128 b 83 -98 90 -114 91 -105 l 31 -188 b 169 -241 68 -223 116 -241 b 328 -172 226 -241 285 -220 b 382 -72 355 -141 369 -108 l 580 452 b 644 635 603 512 625 573 l 539 635 b 491 466 529 577 511 521 l 370 126 l 185 593 b 182 604 183 597 182 600 b 188 634 182 615 189 622 z "},"−":{"ha":694,"x_min":0,"x_max":0,"o":"m 62 477 l 62 392 l 633 392 l 633 477 z "},"’":{"ha":694,"x_min":0,"x_max":0,"o":"m 424 771 b 328 886 424 842 377 886 b 248 806 282 886 248 848 b 287 745 248 769 275 753 b 319 696 299 737 319 724 b 299 638 319 673 306 649 b 229 551 285 615 262 582 l 277 509 b 424 771 374 608 424 698 z "},"‘":{"ha":694,"x_min":0,"x_max":0,"o":"m 253 625 b 349 509 253 554 300 509 b 429 589 395 509 429 547 b 391 650 429 626 403 642 b 358 699 379 658 358 671 b 379 757 358 722 372 746 b 448 844 392 780 416 813 l 401 886 b 253 625 304 787 253 697 z "},"ˋ":{"ha":694,"x_min":0,"x_max":0,"o":"m 338 971 l 251 912 l 391 725 l 460 767 z "},"´":{"ha":694,"x_min":0,"x_max":0,"o":"m 405 971 l 283 767 l 352 725 l 493 912 z "},"ˆ":{"ha":694,"x_min":0,"x_max":0,"o":"m 186 756 l 239 708 l 351 850 l 459 707 l 524 755 l 370 952 l 340 952 z "},"˜":{"ha":694,"x_min":0,"x_max":0,"o":"m 188 774 b 279 860 221 828 242 860 b 459 755 340 860 378 755 b 596 853 510 755 548 794 l 544 909 b 463 835 514 868 498 835 b 394 879 438 835 417 856 b 283 939 376 898 339 939 b 126 819 229 939 177 900 z "},"ˉ":{"ha":694,"x_min":0,"x_max":0,"o":"m 171 863 l 171 785 l 524 785 l 524 863 z "},"˘":{"ha":694,"x_min":0,"x_max":0,"o":"m 191 898 l 140 834 b 347 728 195 768 271 728 b 551 839 431 728 504 775 l 512 897 b 347 799 464 835 405 799 b 191 898 278 799 222 848 z "},"˙":{"ha":694,"x_min":0,"x_max":0,"o":"m 354 911 b 282 840 314 911 282 879 b 354 768 282 800 314 768 b 426 840 393 768 426 800 b 354 911 426 879 393 911 z "},"¨":{"ha":694,"x_min":0,"x_max":0,"o":"m 296 853 b 226 923 296 892 265 923 b 156 853 187 923 156 892 b 226 783 156 814 187 783 b 296 853 265 783 296 814 z m 543 853 b 473 923 543 892 512 923 b 404 853 435 923 404 892 b 473 783 404 814 435 783 b 543 853 512 783 543 814 z "},"˝":{"ha":694,"x_min":0,"x_max":0,"o":"m 297 971 l 175 767 l 245 725 l 385 912 z m 513 971 l 391 767 l 460 725 l 601 912 z "},"˚":{"ha":694,"x_min":0,"x_max":0,"o":"m 483 840 b 356 962 483 907 427 962 b 229 840 285 962 229 907 b 356 718 229 773 285 718 b 483 840 427 718 483 773 z m 300 841 b 357 905 300 877 326 905 b 415 842 389 905 415 877 b 357 778 415 805 388 778 b 300 841 326 778 300 806 z "},"¸":{"ha":694,"x_min":0,"x_max":0,"o":"m 363 0 l 348 -119 l 388 -119 b 439 -128 404 -119 424 -119 b 454 -152 450 -134 454 -144 b 391 -186 454 -164 445 -186 b 253 -137 349 -186 297 -172 l 218 -194 b 383 -246 270 -231 329 -246 b 533 -143 485 -246 533 -192 b 492 -78 533 -116 519 -91 b 439 -67 475 -69 456 -68 l 416 -66 l 423 0 z "},"˛":{"ha":694,"x_min":0,"x_max":0,"o":"m 494 0 b 384 -160 422 -59 384 -115 b 493 -245 384 -206 421 -245 b 589 -212 527 -245 561 -236 l 589 -149 b 544 -173 580 -156 566 -166 b 511 -181 529 -179 519 -181 b 470 -141 485 -181 470 -163 b 493 -93 470 -121 484 -104 b 586 0 505 -80 539 -42 z "},"ˇ":{"ha":694,"x_min":0,"x_max":0,"o":"m 524 915 l 471 962 l 358 821 l 251 964 l 186 916 l 339 719 l 369 719 z "},"ı":{"ha":694,"x_min":0,"x_max":0,"o":"m 147 635 l 147 554 l 301 554 l 301 80 l 139 80 l 139 0 l 550 0 l 550 80 l 402 80 l 402 635 z "},"‹":{"ha":694,"x_min":0,"x_max":0,"o":"m 201 351 l 201 319 l 421 85 l 476 140 l 298 334 l 466 499 l 412 556 z "},"›":{"ha":694,"x_min":0,"x_max":0,"o":"m 476 351 l 265 556 l 211 499 l 379 334 l 201 140 l 257 85 l 476 319 z "},"ō":{"ha":694,"x_min":0,"x_max":0,"o":"m 171 863 l 171 785 l 524 785 l 524 863 z m 639 314 b 357 648 639 533 501 648 b 56 312 195 648 56 508 b 354 -17 56 119 194 -17 b 639 314 504 -17 639 104 z m 350 563 b 538 310 441 563 538 484 b 354 70 538 151 447 70 b 162 321 253 70 162 164 b 350 563 162 477 253 563 z "},"¤":{"ha":694,"x_min":0,"x_max":0,"o":"m 95 683 l 173 605 b 133 479 148 569 133 526 b 172 355 133 433 147 390 l 95 277 l 144 228 l 221 305 b 348 264 257 279 301 264 b 474 304 395 264 438 279 l 550 228 l 599 277 l 523 353 b 564 479 549 389 564 432 b 523 606 564 527 549 571 l 599 683 l 550 732 l 473 655 b 348 695 438 680 395 695 b 222 654 301 695 258 680 l 144 732 z m 348 619 b 488 479 425 619 488 556 b 348 340 488 403 425 340 b 209 479 272 340 209 403 b 348 619 209 556 272 619 z "},"¦":{"ha":694,"x_min":0,"x_max":0,"o":"m 301 906 l 301 410 l 394 410 l 394 906 z m 394 -210 l 394 272 l 301 272 l 301 -210 z "},"¼":{"ha":694,"x_min":0,"x_max":0,"o":"m 105 -23 l 170 -59 l 606 886 l 541 923 z m 550 335 l 327 51 l 327 11 l 530 11 l 530 -97 l 593 -97 l 593 10 l 663 10 l 663 63 l 593 63 l 593 335 z m 531 227 l 531 63 l 400 63 z m 202 941 l 155 941 l 8 860 l 27 826 l 133 853 l 133 579 l 23 579 l 23 519 l 306 519 l 306 579 l 202 579 z "},"½":{"ha":694,"x_min":0,"x_max":0,"o":"m 105 -23 l 170 -59 l 606 886 l 541 923 z m 365 233 l 417 199 b 427 222 422 209 421 214 b 526 269 447 247 483 269 b 610 201 579 269 610 236 b 552 114 610 168 585 141 b 376 -52 519 87 437 33 l 376 -101 l 686 -101 l 686 -31 b 671 -36 679 -29 674 -34 b 659 -41 667 -40 664 -41 l 457 -41 b 625 98 519 29 581 57 b 677 201 640 113 677 149 b 528 326 677 269 617 326 b 365 233 461 326 398 291 z m 202 941 l 155 941 l 8 860 l 27 826 l 133 853 l 133 579 l 23 579 l 23 519 l 306 519 l 306 579 l 202 579 z "},"¾":{"ha":694,"x_min":0,"x_max":0,"o":"m 113 -23 l 177 -59 l 614 886 l 548 923 z m 177 950 b 30 881 121 950 67 925 l 70 839 b 174 891 97 873 136 891 b 257 825 224 891 257 859 b 164 768 257 800 237 768 b 142 769 157 768 149 769 l 142 714 b 175 716 153 715 164 716 b 273 654 260 716 273 675 b 175 582 273 615 229 582 b 83 618 122 582 89 613 b 67 649 73 629 77 639 l 16 592 b 174 520 55 546 113 520 b 342 648 262 520 342 576 b 260 743 342 695 307 735 b 323 830 297 755 323 790 b 177 950 323 894 260 950 z m 550 335 l 327 51 l 327 11 l 530 11 l 530 -97 l 593 -97 l 593 10 l 663 10 l 663 63 l 593 63 l 593 335 z m 531 227 l 531 63 l 400 63 z "},"Ą":{"ha":694,"x_min":0,"x_max":0,"o":"m 453 328 l 219 328 l 331 658 z m 20 -1 l 116 -1 l 200 253 l 475 253 l 571 0 l 580 0 b 470 -160 508 -59 470 -115 b 579 -245 470 -206 507 -245 b 675 -212 613 -245 648 -236 l 675 -149 b 630 -173 666 -156 652 -166 b 597 -181 616 -179 605 -181 b 556 -141 572 -181 556 -163 b 580 -93 556 -121 570 -104 b 672 0 591 -80 626 -42 l 671 0 l 337 881 l 326 881 z "},"Ł":{"ha":694,"x_min":0,"x_max":0,"o":"m 102 865 l 102 423 l 28 399 l 28 314 l 102 338 l 102 -1 l 620 -1 l 620 83 l 203 83 l 203 370 l 469 455 l 469 544 b 433 531 456 538 445 535 l 203 456 l 203 819 b 215 861 203 841 215 844 b 215 865 215 863 215 864 z "},"Ľ":{"ha":694,"x_min":0,"x_max":0,"o":"m 587 780 b 510 872 587 837 549 872 b 446 809 473 872 446 842 b 477 759 446 779 467 766 b 503 720 487 753 503 743 b 487 674 503 702 492 683 b 431 605 476 656 457 629 l 469 571 b 587 780 546 650 587 722 z m 92 865 l 92 -1 l 610 -1 l 610 83 l 193 83 l 193 819 b 200 844 193 831 196 836 b 205 865 202 847 206 856 z "},"Ś":{"ha":694,"x_min":0,"x_max":0,"o":"m 428 1099 l 216 974 l 248 917 l 483 1002 z m 604 762 b 364 870 545 832 458 870 b 100 648 208 870 100 767 b 192 480 100 598 120 533 b 463 350 273 420 397 391 b 535 230 520 314 535 269 b 347 73 535 155 472 73 b 140 169 252 73 178 120 b 136 183 135 174 136 178 b 129 197 136 186 136 193 l 72 97 b 344 -14 140 23 237 -14 b 632 236 554 -14 632 127 b 565 392 632 281 619 341 b 289 534 490 463 368 488 b 200 663 216 576 200 628 b 356 790 200 730 257 790 b 532 704 437 790 499 753 b 536 691 536 699 535 696 b 543 680 536 683 540 681 z "},"Ş":{"ha":694,"x_min":0,"x_max":0,"o":"m 604 762 b 364 870 545 832 458 870 b 100 648 208 870 100 767 b 192 480 100 598 120 533 b 463 350 273 420 397 391 b 535 230 520 314 535 269 b 347 73 535 155 472 73 b 140 169 252 73 178 120 b 136 183 135 174 136 178 b 129 197 136 186 136 193 l 72 97 b 317 -14 134 29 221 -8 l 303 -119 l 344 -119 b 395 -128 360 -119 380 -119 b 410 -152 406 -134 410 -144 b 346 -186 410 -164 400 -186 b 209 -137 304 -186 252 -172 l 174 -194 b 338 -246 226 -231 285 -246 b 489 -143 440 -246 489 -192 b 448 -78 489 -116 475 -91 b 394 -67 430 -69 412 -68 l 372 -66 l 377 -13 b 632 236 563 1 632 133 b 565 392 632 281 619 341 b 289 534 490 463 368 488 b 200 663 216 576 200 628 b 356 790 200 730 257 790 b 532 704 437 790 499 753 b 536 691 536 699 535 696 b 543 680 536 683 540 681 z "},"Ť":{"ha":694,"x_min":0,"x_max":0,"o":"m 551 1049 l 512 1096 l 357 1001 l 213 1099 l 168 1046 l 339 911 l 369 911 z m 43 867 l 43 779 l 289 779 l 289 -1 l 387 -1 l 387 779 l 642 779 l 642 867 z "},"Ź":{"ha":694,"x_min":0,"x_max":0,"o":"m 428 1099 l 216 974 l 248 917 l 483 1002 z m 86 865 l 86 778 l 506 778 l 70 67 l 70 -1 l 642 -1 l 642 93 b 601 85 625 96 620 85 l 192 85 l 620 797 l 621 865 z "},"Ż":{"ha":694,"x_min":0,"x_max":0,"o":"m 354 1087 b 282 1016 314 1087 282 1055 b 354 944 282 977 314 944 b 426 1016 393 944 426 977 b 354 1087 426 1055 393 1087 z m 86 865 l 86 778 l 506 778 l 70 67 l 70 -1 l 642 -1 l 642 93 b 601 85 625 96 620 85 l 192 85 l 620 797 l 621 865 z "},"Ŕ":{"ha":694,"x_min":0,"x_max":0,"o":"m 428 1099 l 216 974 l 248 917 l 483 1002 z m 78 865 l 78 0 l 176 0 l 176 382 l 344 382 l 536 0 l 645 0 l 445 386 b 621 628 550 415 621 513 b 499 836 621 715 578 796 b 333 865 444 864 389 865 z m 176 774 l 333 774 b 439 756 369 774 404 773 b 521 617 493 729 521 674 b 444 485 521 562 495 511 b 344 467 411 468 378 467 l 176 467 z "},"Ă":{"ha":694,"x_min":0,"x_max":0,"o":"m 177 1090 l 127 1026 b 334 919 182 960 258 919 b 538 1031 418 919 491 967 l 499 1088 b 334 991 451 1027 392 991 b 177 1090 265 991 209 1039 z m 20 -1 l 116 -1 l 200 253 l 475 253 l 571 0 l 671 0 l 337 881 l 326 881 z m 453 328 l 219 328 l 331 658 z "},"Ĺ":{"ha":694,"x_min":0,"x_max":0,"o":"m 428 1099 l 216 974 l 248 917 l 483 1002 z m 92 865 l 92 -1 l 610 -1 l 610 83 l 193 83 l 193 819 b 200 844 193 831 196 836 b 205 865 202 847 206 856 z "},"Ć":{"ha":694,"x_min":0,"x_max":0,"o":"m 428 1099 l 216 974 l 248 917 l 483 1002 z m 385 873 b 56 428 251 873 56 774 b 385 -14 56 93 242 -14 b 639 128 488 -14 585 40 l 567 175 b 390 70 527 109 458 70 b 151 436 263 70 151 202 b 382 795 151 666 260 795 b 548 694 450 795 513 755 b 553 680 551 690 553 686 b 552 669 553 676 552 673 b 559 656 552 668 552 660 l 651 701 b 385 873 604 806 500 873 z "},"Č":{"ha":694,"x_min":0,"x_max":0,"o":"m 574 1049 l 535 1096 l 380 1001 l 236 1099 l 191 1046 l 362 911 l 392 911 z m 385 873 b 56 428 251 873 56 774 b 385 -14 56 93 242 -14 b 639 128 488 -14 585 40 l 567 175 b 390 70 527 109 458 70 b 151 436 263 70 151 202 b 382 795 151 666 260 795 b 548 694 450 795 513 755 b 553 680 551 690 553 686 b 552 669 553 676 552 673 b 559 656 552 668 552 660 l 651 701 b 385 873 604 806 500 873 z "},"Ę":{"ha":694,"x_min":0,"x_max":0,"o":"m 82 867 l 82 0 l 514 0 b 404 -160 442 -59 404 -115 b 513 -245 404 -206 441 -245 b 609 -212 547 -245 582 -236 l 609 -149 b 564 -173 600 -156 586 -166 b 531 -181 550 -179 540 -181 b 490 -141 506 -181 490 -163 b 514 -93 490 -121 504 -104 b 606 0 525 -80 560 -42 l 609 0 l 609 86 l 174 86 l 174 408 l 536 408 l 536 496 l 174 496 l 174 780 l 612 780 l 612 867 z "},"Ě":{"ha":694,"x_min":0,"x_max":0,"o":"m 551 1049 l 512 1096 l 357 1001 l 213 1099 l 168 1046 l 339 911 l 369 911 z m 82 867 l 82 0 l 609 0 l 609 86 l 174 86 l 174 408 l 536 408 l 536 496 l 174 496 l 174 780 l 612 780 l 612 867 z "},"Ď":{"ha":694,"x_min":0,"x_max":0,"o":"m 515 1049 l 476 1096 l 321 1001 l 177 1099 l 132 1046 l 303 911 l 333 911 z m 74 865 l 74 -1 l 260 -1 b 447 34 329 -1 386 2 b 639 434 571 97 639 245 b 478 819 639 601 590 747 b 277 865 415 860 353 865 z m 167 783 l 271 783 b 434 735 325 783 380 780 b 541 421 514 669 541 545 b 417 115 541 256 486 161 b 255 76 363 78 310 76 l 167 76 z "},"Đ":{"ha":694,"x_min":0,"x_max":0,"o":"m 109 865 l 109 499 l 42 499 l 42 418 l 109 418 l 109 -1 l 286 -1 b 443 25 348 -1 394 3 b 647 438 576 87 647 253 b 499 814 647 585 603 737 b 303 865 438 859 378 865 z m 199 418 l 344 418 l 344 499 l 199 499 l 199 784 l 297 784 b 481 701 351 784 422 782 b 554 426 533 629 554 522 b 426 115 554 289 510 171 b 282 79 377 82 331 79 l 199 79 z "},"Ń":{"ha":694,"x_min":0,"x_max":0,"o":"m 428 1099 l 216 974 l 248 917 l 483 1002 z m 70 0 l 163 0 l 163 681 l 544 -1 l 621 -1 l 621 829 b 626 849 621 839 623 843 b 630 867 628 852 632 859 l 527 867 l 527 224 l 164 865 l 70 865 z "},"Ň":{"ha":694,"x_min":0,"x_max":0,"o":"m 551 1049 l 512 1096 l 357 1001 l 213 1099 l 168 1046 l 339 911 l 369 911 z m 70 0 l 163 0 l 163 681 l 544 -1 l 621 -1 l 621 829 b 626 849 621 839 623 843 b 630 867 628 852 632 859 l 527 867 l 527 224 l 164 865 l 70 865 z "},"Ő":{"ha":694,"x_min":0,"x_max":0,"o":"m 571 1125 l 388 953 l 433 895 l 635 1036 z m 324 1125 l 141 953 l 186 895 l 388 1036 z m 654 431 b 601 712 654 512 649 619 b 352 875 545 823 446 875 b 41 434 223 875 41 774 b 353 -13 41 94 221 -13 b 603 154 446 -13 546 39 b 654 431 649 247 654 355 z m 348 784 b 524 647 409 784 483 747 b 557 418 553 574 557 491 b 519 199 557 362 554 273 b 353 81 479 114 412 81 b 137 447 256 81 137 171 b 348 784 137 705 257 784 z "},"Ř":{"ha":694,"x_min":0,"x_max":0,"o":"m 551 1049 l 512 1096 l 357 1001 l 213 1099 l 168 1046 l 339 911 l 369 911 z m 78 865 l 78 0 l 176 0 l 176 382 l 344 382 l 536 0 l 645 0 l 445 386 b 621 628 550 415 621 513 b 499 836 621 715 578 796 b 333 865 444 864 389 865 z m 176 774 l 333 774 b 439 756 369 774 404 773 b 521 617 493 729 521 674 b 444 485 521 562 495 511 b 344 467 411 468 378 467 l 176 467 z "},"Ů":{"ha":694,"x_min":0,"x_max":0,"o":"m 478 982 b 351 1104 478 1049 422 1104 b 224 982 280 1104 224 1049 b 351 859 224 915 280 859 b 478 982 422 859 478 915 z m 295 983 b 352 1046 295 1019 321 1046 b 410 983 384 1046 410 1019 b 352 919 410 947 384 919 b 295 983 321 919 295 947 z m 70 865 l 70 298 l 70 298 b 103 119 70 237 71 178 b 349 -16 151 30 247 -16 b 596 120 449 -16 547 29 b 630 303 629 180 630 240 l 630 865 l 538 865 l 538 301 b 516 168 538 256 537 213 b 351 67 484 102 419 67 b 186 170 283 67 217 103 b 165 297 166 212 165 254 l 165 821 b 171 839 165 827 166 832 b 180 858 175 844 180 850 b 179 865 180 861 180 863 z "},"Ű":{"ha":694,"x_min":0,"x_max":0,"o":"m 571 1125 l 388 953 l 433 895 l 635 1036 z m 324 1125 l 141 953 l 186 895 l 388 1036 z m 70 865 l 70 298 l 70 298 b 103 119 70 237 71 178 b 349 -16 151 30 247 -16 b 596 120 449 -16 547 29 b 630 303 629 180 630 240 l 630 865 l 538 865 l 538 301 b 516 168 538 256 537 213 b 351 67 484 102 419 67 b 186 170 283 67 217 103 b 165 297 166 212 165 254 l 165 821 b 171 839 165 827 166 832 b 180 858 175 844 180 850 b 179 865 180 861 180 863 z "},"Ţ":{"ha":694,"x_min":0,"x_max":0,"o":"m 43 867 l 43 779 l 289 779 l 289 -1 l 310 -1 l 295 -119 l 336 -119 b 386 -128 351 -119 371 -119 b 402 -152 397 -134 402 -144 b 338 -186 402 -164 392 -186 b 200 -137 296 -186 244 -172 l 165 -194 b 330 -246 217 -231 277 -246 b 481 -143 432 -246 481 -192 b 440 -78 481 -116 466 -91 b 386 -67 422 -69 404 -68 l 363 -66 l 370 -1 l 387 -1 l 387 779 l 642 779 l 642 867 z "},"ą":{"ha":694,"x_min":0,"x_max":0,"o":"m 512 297 l 512 255 b 469 136 512 222 512 181 b 302 61 446 111 385 61 b 169 171 218 61 169 114 b 281 288 169 217 201 269 b 489 297 338 301 423 297 z m 126 560 l 175 496 b 357 567 227 551 298 567 b 488 506 432 567 470 535 b 508 397 509 471 508 430 l 508 374 l 488 374 b 214 345 394 374 294 375 b 68 164 114 308 68 234 b 282 -16 68 71 149 -16 b 509 70 360 -16 440 13 l 509 0 l 511 0 b 400 -160 439 -59 400 -115 b 509 -245 400 -206 437 -245 b 605 -212 544 -245 578 -236 l 605 -149 b 561 -173 596 -156 582 -166 b 527 -181 546 -179 536 -181 b 487 -141 502 -181 487 -163 b 510 -93 487 -121 500 -104 b 603 0 522 -80 556 -42 l 604 0 l 604 393 b 573 543 604 445 602 494 b 352 649 531 612 451 649 b 126 560 267 649 185 621 z "},"ă":{"ha":694,"x_min":0,"x_max":0,"o":"m 203 898 l 152 834 b 359 728 207 768 283 728 b 563 839 443 728 516 775 l 524 897 b 359 799 476 835 417 799 b 203 898 290 799 234 848 z m 126 560 l 175 496 b 357 567 227 551 298 567 b 488 506 432 567 470 535 b 508 397 509 471 508 430 l 508 374 l 488 374 b 214 345 394 374 294 375 b 68 164 114 308 68 234 b 282 -16 68 71 149 -16 b 509 70 360 -16 440 13 l 509 0 l 604 0 l 604 393 b 573 543 604 445 602 494 b 352 649 531 612 451 649 b 126 560 267 649 185 621 z m 512 297 l 512 255 b 469 136 512 222 512 181 b 302 61 446 111 385 61 b 169 171 218 61 169 114 b 281 288 169 217 201 269 b 489 297 338 301 423 297 z "},"č":{"ha":694,"x_min":0,"x_max":0,"o":"m 634 530 b 397 647 584 603 499 647 b 78 317 210 647 78 507 b 390 -16 78 126 211 -16 b 624 85 479 -16 564 20 l 567 152 b 399 75 524 104 462 75 b 181 327 275 75 181 179 b 390 562 181 472 274 562 b 555 479 499 562 551 487 b 563 447 560 468 552 455 z m 524 915 l 471 962 l 358 821 l 251 964 l 186 916 l 339 719 l 369 719 z "},"ď":{"ha":694,"x_min":0,"x_max":0,"o":"m 429 542 b 252 651 396 609 328 651 b 0 322 123 651 0 532 b 239 -14 0 127 105 -14 b 424 102 317 -14 386 35 l 424 47 b 430 0 424 32 425 15 l 530 0 b 524 59 525 19 524 40 l 524 924 l 429 924 z m 257 570 b 400 476 308 570 372 534 b 421 306 419 435 421 390 b 390 155 421 248 417 200 b 261 74 364 113 316 74 b 97 334 158 74 97 205 b 257 570 97 471 167 570 z m 707 840 b 630 932 707 897 669 932 b 566 869 593 932 566 902 b 597 819 566 839 587 826 b 623 780 606 813 623 803 b 606 734 623 762 612 743 b 551 665 596 716 577 689 l 589 631 b 707 840 666 710 707 782 z "},"ę":{"ha":694,"x_min":0,"x_max":0,"o":"m 359 650 b 68 313 208 650 68 541 b 363 -14 68 105 196 -14 b 458 -1 395 -14 427 -10 b 381 -140 407 -50 381 -99 b 496 -243 381 -197 427 -243 b 587 -218 529 -243 561 -232 l 589 -150 b 518 -176 549 -175 525 -176 b 463 -122 486 -176 463 -153 b 550 23 463 -81 502 -37 l 599 84 l 544 138 b 380 66 503 92 443 66 b 165 303 295 66 172 113 l 615 303 b 611 423 619 346 617 386 b 359 650 582 594 464 650 z m 168 380 b 352 573 188 530 284 573 b 517 380 455 573 529 483 z "},"ľ":{"ha":694,"x_min":0,"x_max":0,"o":"m 659 840 b 582 932 659 897 621 932 b 518 869 545 932 518 902 b 549 819 518 839 539 826 b 575 780 559 813 575 803 b 558 734 575 762 564 743 b 503 665 548 716 529 689 l 541 631 b 659 840 618 710 659 782 z m 93 923 l 93 843 l 273 843 l 273 80 l 85 80 l 85 0 l 561 0 l 561 80 l 374 80 l 374 923 z "},"ĺ":{"ha":694,"x_min":0,"x_max":0,"o":"m 117 923 l 117 843 l 297 843 l 297 80 l 109 80 l 109 0 l 585 0 l 585 80 l 398 80 l 398 923 z m 428 1159 l 216 1034 l 248 977 l 483 1062 z "},"ń":{"ha":694,"x_min":0,"x_max":0,"o":"m 405 971 l 283 767 l 352 725 l 493 912 z m 95 0 l 197 0 l 197 366 b 228 475 197 408 202 439 b 380 563 252 507 313 563 b 466 523 412 563 444 550 b 501 382 501 482 501 427 l 501 0 l 599 0 l 599 385 l 599 385 b 576 538 599 434 599 487 b 407 650 545 609 480 650 b 197 523 321 650 243 593 l 197 634 l 95 634 z "},"ň":{"ha":694,"x_min":0,"x_max":0,"o":"m 524 915 l 471 962 l 358 821 l 251 964 l 186 916 l 339 719 l 369 719 z m 95 0 l 197 0 l 197 366 b 228 475 197 408 202 439 b 380 563 252 507 313 563 b 466 523 412 563 444 550 b 501 382 501 482 501 427 l 501 0 l 599 0 l 599 385 l 599 385 b 576 538 599 434 599 487 b 407 650 545 609 480 650 b 197 523 321 650 243 593 l 197 634 l 95 634 z "},"ő":{"ha":694,"x_min":0,"x_max":0,"o":"m 297 971 l 175 767 l 245 725 l 385 912 z m 513 971 l 391 767 l 460 725 l 601 912 z m 639 314 b 357 648 639 533 501 648 b 56 312 195 648 56 508 b 354 -17 56 119 194 -17 b 639 314 504 -17 639 104 z m 350 563 b 538 310 441 563 538 484 b 354 70 538 151 447 70 b 162 321 253 70 162 164 b 350 563 162 477 253 563 z "},"ř":{"ha":694,"x_min":0,"x_max":0,"o":"m 524 915 l 471 962 l 358 821 l 251 964 l 186 916 l 339 719 l 369 719 z m 138 634 l 138 -1 l 239 -1 l 239 308 b 283 457 239 346 240 388 b 461 564 341 548 417 564 b 566 516 515 564 548 539 b 590 484 575 505 579 494 l 636 580 b 467 649 597 621 538 649 b 239 512 374 649 280 603 l 242 634 z "},"ś":{"ha":694,"x_min":0,"x_max":0,"o":"m 405 971 l 283 767 l 352 725 l 493 912 z m 601 550 b 364 650 542 615 458 650 b 120 473 216 650 120 567 b 274 309 120 362 240 321 b 445 251 328 290 398 273 b 508 170 497 226 508 193 b 345 70 508 110 436 70 b 147 158 236 70 167 135 b 143 173 142 163 143 167 b 137 186 143 175 143 183 l 79 86 b 347 -14 154 17 251 -14 b 611 184 520 -14 611 88 b 518 327 611 228 593 285 b 285 410 446 367 344 382 b 222 488 233 435 222 466 b 355 574 222 539 284 574 b 532 487 446 574 507 518 b 535 474 535 482 535 479 b 542 463 534 466 539 463 z "},"ć":{"ha":694,"x_min":0,"x_max":0,"o":"m 405 971 l 283 767 l 352 725 l 493 912 z m 634 530 b 397 647 584 603 499 647 b 78 317 210 647 78 507 b 390 -16 78 126 211 -16 b 624 85 479 -16 564 20 l 567 152 b 399 75 524 104 462 75 b 181 327 275 75 181 179 b 390 562 181 472 274 562 b 555 479 499 562 551 487 b 563 447 560 468 552 455 z "},"ş":{"ha":694,"x_min":0,"x_max":0,"o":"m 601 550 b 364 650 542 615 458 650 b 120 473 216 650 120 567 b 274 309 120 362 240 321 b 445 251 328 290 398 273 b 508 170 497 226 508 193 b 345 70 508 110 436 70 b 147 158 236 70 167 135 b 143 173 142 163 143 167 b 137 186 143 175 143 183 l 79 86 b 325 -14 148 22 236 -9 l 312 -119 l 352 -119 b 403 -128 368 -119 388 -119 b 418 -152 414 -134 418 -144 b 355 -186 418 -164 409 -186 b 217 -137 313 -186 261 -172 l 182 -194 b 347 -246 234 -231 294 -246 b 498 -143 449 -246 498 -192 b 457 -78 498 -116 483 -91 b 403 -67 439 -69 420 -68 l 380 -66 l 386 -13 b 611 184 534 1 611 95 b 518 327 611 228 593 285 b 285 410 446 367 344 382 b 222 488 233 435 222 466 b 355 574 222 539 284 574 b 532 487 446 574 507 518 b 535 474 535 482 535 479 b 542 463 534 466 539 463 z "},"ţ":{"ha":694,"x_min":0,"x_max":0,"o":"m 261 804 l 249 634 l 98 634 l 97 553 l 246 553 b 233 228 237 444 233 336 b 270 55 233 171 233 107 b 386 -10 295 20 335 -4 l 372 -119 l 412 -119 b 463 -128 428 -119 448 -119 b 478 -152 474 -134 478 -144 b 415 -186 478 -164 469 -186 b 277 -137 373 -186 321 -172 l 242 -194 b 407 -246 294 -231 353 -246 b 557 -143 509 -246 557 -192 b 516 -78 557 -116 543 -91 b 463 -67 499 -69 480 -68 l 440 -66 l 446 -10 b 617 59 510 -3 571 25 l 586 138 b 444 80 532 98 483 80 b 337 182 397 80 347 106 b 333 304 336 188 333 212 b 345 553 333 387 337 470 l 554 553 l 554 635 l 346 635 b 363 785 346 635 356 750 b 370 822 365 800 375 808 z "},"ů":{"ha":694,"x_min":0,"x_max":0,"o":"m 483 840 b 356 962 483 907 427 962 b 229 840 285 962 229 907 b 356 718 229 773 285 718 b 483 840 427 718 483 773 z m 300 841 b 357 905 300 877 326 905 b 415 842 389 905 415 877 b 357 778 415 805 388 778 b 300 841 326 778 300 806 z m 87 634 l 86 280 b 111 114 86 225 87 170 b 309 -16 149 30 226 -16 b 505 97 388 -16 463 27 l 503 49 b 506 0 503 33 503 16 l 611 0 b 604 58 605 19 604 39 l 604 634 l 503 634 l 503 285 b 478 160 503 236 500 199 b 332 66 449 107 393 66 b 211 144 282 66 236 93 b 188 280 188 188 188 238 l 188 634 z "},"ű":{"ha":694,"x_min":0,"x_max":0,"o":"m 297 971 l 175 767 l 245 725 l 385 912 z m 513 971 l 391 767 l 460 725 l 601 912 z m 87 634 l 86 280 b 111 114 86 225 87 170 b 309 -16 149 30 226 -16 b 505 97 388 -16 463 27 l 503 49 b 506 0 503 33 503 16 l 611 0 b 604 58 605 19 604 39 l 604 634 l 503 634 l 503 285 b 478 160 503 236 500 199 b 332 66 449 107 393 66 b 211 144 282 66 236 93 b 188 280 188 188 188 238 l 188 634 z "},"ż":{"ha":694,"x_min":0,"x_max":0,"o":"m 98 635 l 98 548 l 463 548 l 70 67 l 70 -1 l 624 -1 l 624 93 b 583 85 607 96 602 85 l 205 85 l 592 567 l 592 635 z m 354 911 b 282 840 314 911 282 879 b 354 768 282 800 314 768 b 426 840 393 768 426 800 b 354 911 426 879 393 911 z "},"ł":{"ha":694,"x_min":0,"x_max":0,"o":"m 117 923 l 117 843 l 297 843 l 297 479 l 188 441 l 188 350 l 297 387 l 297 80 l 109 80 l 109 0 l 585 0 l 585 80 l 398 80 l 398 421 l 525 464 l 525 566 b 488 545 512 556 502 550 l 398 514 l 398 923 z "},"ě":{"ha":694,"x_min":0,"x_max":0,"o":"m 524 915 l 471 962 l 358 821 l 251 964 l 186 916 l 339 719 l 369 719 z m 359 650 b 67 310 208 650 67 542 b 372 -15 67 99 200 -15 b 599 84 463 -15 545 19 l 544 138 b 380 66 503 92 443 66 b 165 303 295 66 172 113 l 615 303 b 610 424 619 347 617 388 b 359 650 582 595 463 650 z m 168 380 b 352 573 188 530 284 573 b 517 380 455 573 529 483 z "},"ĸ":{"ha":694,"x_min":0,"x_max":0,"o":"m 92 634 l 92 -1 l 193 -1 l 193 240 l 277 318 l 536 -6 b 656 -1 536 -6 589 -1 b 665 -1 659 -1 662 -1 l 354 379 l 621 630 l 585 630 b 511 638 561 630 535 632 l 193 343 l 193 598 b 198 613 193 603 193 607 b 206 631 201 618 206 623 b 206 634 206 632 206 633 z "},"ȷ":{"ha":694,"x_min":0,"x_max":0,"o":"m 175 635 l 175 553 l 411 553 l 411 25 b 395 -76 411 -9 411 -42 b 267 -156 371 -127 321 -156 b 144 -93 191 -156 149 -101 b 132 -67 138 -83 140 -74 l 67 -153 b 261 -242 113 -210 182 -242 b 483 -116 351 -242 440 -200 b 512 44 510 -62 512 -10 l 512 635 z "},"ŋ":{"ha":694,"x_min":0,"x_max":0,"o":"m 95 0 l 197 0 l 197 366 b 228 475 197 408 202 439 b 380 563 252 507 313 563 b 466 523 412 563 444 550 b 501 382 501 482 501 427 l 501 62 b 471 -92 501 13 501 -45 b 367 -151 445 -132 405 -151 b 289 -122 323 -151 292 -127 b 277 -104 285 -117 286 -106 l 229 -198 b 365 -244 268 -228 315 -244 b 575 -98 452 -244 536 -192 b 599 78 599 -39 599 20 l 599 385 b 576 538 599 434 599 487 b 407 650 545 609 480 650 b 197 523 321 650 243 593 l 197 634 l 95 634 z "},"‚":{"ha":694,"x_min":0,"x_max":0,"o":"m 424 27 b 328 143 424 98 377 143 b 248 63 282 143 248 105 b 287 2 248 26 275 10 b 319 -48 299 -6 319 -19 b 299 -105 319 -71 306 -94 b 229 -192 285 -128 262 -161 l 277 -234 b 424 27 374 -136 424 -45 z "},"“":{"ha":694,"x_min":0,"x_max":0,"o":"m 397 625 b 493 509 397 554 444 509 b 573 589 539 509 573 547 b 534 650 573 626 547 642 b 502 699 522 658 502 671 b 522 757 502 722 516 746 b 592 844 536 780 559 813 l 544 886 b 397 625 448 787 397 697 z m 109 625 b 206 509 109 554 156 509 b 285 589 251 509 285 547 b 247 650 285 626 259 642 b 214 699 235 658 214 671 b 235 757 214 722 228 746 b 305 844 248 780 272 813 l 257 886 b 109 625 160 787 109 697 z "},"”":{"ha":694,"x_min":0,"x_max":0,"o":"m 281 771 b 184 886 281 842 234 886 b 104 806 138 886 104 848 b 143 745 104 769 131 753 b 176 696 155 737 176 724 b 155 638 176 673 162 649 b 85 551 141 615 118 582 l 133 509 b 281 771 230 608 281 698 z m 568 771 b 472 886 568 842 521 886 b 392 806 426 886 392 848 b 431 745 392 769 418 753 b 463 696 443 737 463 724 b 443 638 463 673 449 649 b 373 551 429 615 406 582 l 421 509 b 568 771 517 608 568 698 z "},"„":{"ha":694,"x_min":0,"x_max":0,"o":"m 568 27 b 472 143 568 98 521 143 b 392 63 426 143 392 105 b 431 2 392 26 418 10 b 463 -48 443 -6 463 -19 b 443 -105 463 -71 449 -94 b 373 -192 429 -128 406 -161 l 421 -234 b 568 27 517 -136 568 -45 z m 281 27 b 184 143 281 98 234 143 b 104 63 138 143 104 105 b 143 2 104 26 131 10 b 176 -48 155 -6 176 -19 b 155 -105 176 -71 162 -94 b 85 -192 141 -128 118 -161 l 133 -234 b 281 27 230 -136 281 -45 z "},"…":{"ha":694,"x_min":0,"x_max":0,"o":"m 653 64 b 571 144 653 108 617 144 b 489 64 525 144 489 108 b 571 -16 489 20 525 -16 b 653 64 617 -16 653 20 z m 174 64 b 92 144 174 108 137 144 b 10 64 46 144 10 108 b 92 -16 10 20 46 -16 b 174 64 137 -16 174 20 z m 414 64 b 331 144 414 108 377 144 b 249 64 286 144 249 108 b 331 -16 249 20 286 -16 b 414 64 377 -16 414 20 z "},"↑":{"ha":694,"x_min":0,"x_max":0,"o":"m 82 561 l 141 512 l 303 712 l 303 -47 l 396 -47 l 396 712 l 543 512 l 612 559 l 372 889 l 342 889 z "},"↓":{"ha":694,"x_min":0,"x_max":0,"o":"m 612 282 l 553 331 l 391 130 l 391 889 l 298 889 l 298 131 l 151 331 l 82 284 l 322 -47 l 352 -47 z "},"␣":{"ha":694,"x_min":0,"x_max":0,"o":"m 67 97 l 67 -91 l 628 -91 l 628 97 l 561 97 l 561 -29 l 132 -29 l 132 97 z "},"ğ":{"ha":694,"x_min":0,"x_max":0,"o":"m 203 898 l 152 834 b 359 728 207 768 283 728 b 563 839 443 728 516 775 l 524 897 b 359 799 476 835 417 799 b 203 898 290 799 234 848 z m 175 437 b 315 576 175 514 238 576 b 454 437 392 576 454 514 b 315 297 454 360 392 297 b 175 437 237 297 175 360 z m 321 655 b 84 431 194 655 84 555 b 177 259 84 361 119 297 b 106 136 132 220 106 177 b 156 52 106 110 116 73 b 53 -89 88 8 53 -38 b 340 -239 53 -158 118 -239 b 632 -45 555 -239 632 -130 b 533 93 632 10 601 65 b 319 111 467 120 391 111 b 228 119 271 111 242 115 b 190 160 204 125 190 140 b 235 231 190 194 229 226 b 316 217 261 222 288 217 b 544 434 441 217 544 317 b 512 542 544 473 533 510 b 623 572 545 562 584 572 b 659 569 635 572 647 571 l 647 651 b 471 595 583 656 520 636 b 321 655 432 633 379 655 z m 224 34 b 330 26 248 31 282 28 b 465 23 377 25 428 28 b 540 -51 524 14 540 -23 b 481 -135 540 -79 525 -112 b 338 -163 435 -161 381 -163 b 208 -143 309 -163 255 -162 b 145 -65 156 -122 145 -87 b 224 34 145 -19 188 14 z "},"⁴":{"ha":694,"x_min":0,"x_max":0,"o":"m 420 891 l 141 535 l 141 485 l 394 485 l 394 350 l 473 350 l 473 484 l 561 484 l 561 550 l 473 550 l 473 891 z m 396 755 l 396 550 l 233 550 z "},"⁄":{"ha":694,"x_min":0,"x_max":0,"o":"m 105 -23 l 170 -59 l 606 886 l 541 923 z "},"Ŋ":{"ha":694,"x_min":0,"x_max":0,"o":"m 71 0 l 173 0 l 173 573 b 204 691 173 619 178 653 b 380 794 235 735 305 794 b 504 716 433 794 479 765 b 525 586 525 673 525 627 l 525 236 b 510 133 525 203 525 166 b 416 72 491 94 456 72 b 355 89 384 72 358 87 b 340 105 349 94 348 101 l 291 19 b 413 -15 329 -3 371 -15 b 600 100 493 -15 565 27 b 623 243 622 148 623 195 l 623 589 l 623 589 b 597 754 623 643 623 699 b 398 881 560 835 483 881 b 173 753 307 881 222 830 l 173 865 l 71 865 z "},"đ":{"ha":694,"x_min":0,"x_max":0,"o":"m 324 569 b 487 446 380 569 462 540 b 498 310 495 416 498 381 b 485 194 498 262 495 226 b 328 74 460 118 394 74 b 150 339 256 74 150 130 b 324 569 150 520 251 569 z m 599 755 l 660 755 l 660 829 l 599 829 l 599 885 b 605 903 599 892 600 896 b 612 924 608 908 613 915 l 506 924 l 506 829 l 400 829 l 400 755 l 506 755 l 506 542 b 320 651 475 607 407 651 b 53 323 199 651 53 565 b 305 -14 53 88 182 -14 b 501 102 386 -14 461 31 l 501 47 b 507 0 501 32 502 15 l 606 0 b 601 59 601 19 601 40 z "},"Ğ":{"ha":694,"x_min":0,"x_max":0,"o":"m 203 1098 l 152 1034 b 359 928 207 968 283 928 b 563 1039 443 928 516 975 l 524 1097 b 359 1000 476 1035 417 1000 b 203 1098 290 1000 234 1048 z m 385 874 b 50 422 270 874 50 802 b 385 -13 50 95 234 -13 b 639 77 465 -13 557 17 l 639 415 l 392 415 l 392 331 l 549 331 l 549 125 b 393 72 500 90 445 72 b 229 148 337 72 276 94 b 146 443 156 230 146 351 b 190 665 146 523 156 601 b 384 789 234 749 312 789 b 550 687 462 789 523 745 b 568 659 554 677 557 666 l 636 729 b 385 874 587 818 492 874 z "},"İ":{"ha":694,"x_min":0,"x_max":0,"o":"m 330 1099 b 258 1028 290 1099 258 1067 b 330 956 258 989 290 956 b 402 1028 369 956 402 989 b 330 1099 402 1067 369 1099 z m 122 865 l 122 784 l 283 784 l 283 80 l 113 80 l 113 -1 l 560 -1 l 560 79 l 380 79 l 380 784 l 551 784 l 551 865 z "},"ŕ":{"ha":694,"x_min":0,"x_max":0,"o":"m 405 971 l 283 767 l 352 725 l 493 912 z m 138 634 l 138 -1 l 239 -1 l 239 308 b 283 457 239 346 240 388 b 461 564 341 548 417 564 b 566 516 515 564 548 539 b 590 484 575 505 579 494 l 636 580 b 467 649 597 621 538 649 b 239 512 374 649 280 603 l 242 634 z "},"ť":{"ha":694,"x_min":0,"x_max":0,"o":"m 671 888 b 594 980 671 945 633 980 b 530 917 557 980 530 950 b 561 867 530 887 551 874 b 587 828 571 861 587 851 b 570 782 587 809 576 790 b 515 712 560 764 541 737 l 553 679 b 671 888 630 757 671 830 z m 225 804 l 213 634 l 62 634 l 61 553 l 210 553 b 197 228 201 444 197 336 b 234 55 197 171 197 107 b 379 -12 264 13 314 -12 b 581 59 454 -12 528 19 l 550 138 b 408 80 496 98 447 80 b 301 182 361 80 311 106 b 297 304 301 188 297 212 b 309 553 297 387 301 470 l 518 553 l 518 635 l 310 635 b 327 785 310 635 320 750 b 334 822 329 800 339 808 z "},"ź":{"ha":694,"x_min":0,"x_max":0,"o":"m 405 971 l 283 767 l 352 725 l 493 912 z m 98 635 l 98 548 l 463 548 l 70 67 l 70 -1 l 624 -1 l 624 93 b 583 85 607 96 602 85 l 205 85 l 592 567 l 592 635 z "},"•":{"ha":694,"x_min":0,"x_max":0,"o":"m 473 412 b 355 527 473 475 421 527 b 237 412 290 527 237 475 b 355 296 237 348 290 296 b 473 412 421 296 473 348 z "},"ƒ":{"ha":694,"x_min":0,"x_max":0,"o":"m 666 862 b 512 935 628 908 571 935 b 329 818 438 935 368 894 b 295 659 303 766 299 712 l 285 532 l 111 532 l 111 453 l 279 453 l 248 37 b 217 -100 245 -5 241 -57 b 146 -150 197 -137 169 -150 b 96 -123 122 -150 104 -136 b 82 -105 93 -117 90 -110 l 25 -194 b 138 -243 54 -225 95 -243 b 297 -144 195 -243 257 -212 b 342 34 329 -89 337 -28 l 375 453 l 553 453 l 553 532 l 382 532 l 391 646 b 416 786 394 690 396 743 b 513 856 438 836 478 856 b 606 797 559 856 593 824 b 609 780 609 790 608 786 b 621 770 611 772 617 770 z "},"†":{"ha":694,"x_min":0,"x_max":0,"o":"m 301 906 l 301 634 l 68 634 l 68 551 l 301 551 l 301 -210 l 394 -210 l 394 551 l 624 551 l 624 634 l 394 634 l 394 906 z "},"‡":{"ha":694,"x_min":0,"x_max":0,"o":"m 301 906 l 301 634 l 68 634 l 68 551 l 301 551 l 301 168 l 68 168 l 68 85 l 301 85 l 301 -210 l 394 -210 l 394 85 l 624 85 l 624 168 l 394 168 l 394 551 l 624 551 l 624 634 l 394 634 l 394 906 z "},"™":{"ha":694,"x_min":0,"x_max":0,"o":"m 331 881 l 25 881 l 25 826 l 144 826 l 144 444 l 207 444 l 207 826 l 331 826 z m 420 881 l 372 881 l 372 444 l 430 444 l 430 743 l 506 594 l 529 593 l 570 667 l 612 743 l 612 444 l 670 444 l 670 881 l 624 881 l 572 781 l 520 680 z "}}}
